<?xml version="1.0" encoding="UTF-8"?>
<svg id="back_" data-name="back[" xmlns="http://www.w3.org/2000/svg" viewBox="0 0 1920 1080">
  <defs>
    <style>
      .cls-1 {
        fill: #74a15b;
      }

      .cls-2 {
        fill: #749c5b;
      }

      .cls-3 {
        fill: #77a05c;
      }

      .cls-4 {
        fill: #77a25c;
      }

      .cls-5 {
        fill: #759f5d;
      }

      .cls-6 {
        fill: #77a25d;
      }

      .cls-7 {
        fill: #152c31;
      }

      .cls-8 {
        fill: #75a25b;
      }

      .cls-9 {
        fill: #759f5c;
      }

      .cls-10 {
        fill: #75a05c;
      }

      .cls-11 {
        fill: #75a05b;
      }

      .cls-12, .cls-13 {
        fill: none;
      }

      .cls-14 {
        fill: #75a15d;
      }

      .cls-15 {
        fill: #75a15c;
      }

      .cls-16 {
        fill: #1b3c43;
      }

      .cls-13 {
        stroke: #1a3a40;
        stroke-linecap: round;
        stroke-linejoin: round;
      }

      .cls-17 {
        fill: #76a15c;
      }

      .cls-18 {
        fill: #74a05d;
      }

      .cls-19 {
        fill: #142b2f;
      }

      .cls-20 {
        fill: #739d5b;
      }

      .cls-21 {
        fill: #193137;
      }

      .cls-22 {
        fill: #1a3a40;
      }

      .cls-23 {
        fill: #77a15d;
      }

      .cls-24 {
        fill: #76a05e;
      }

      .cls-25 {
        fill: #77a15c;
      }

      .cls-26 {
        fill: #76a15d;
      }

      .cls-27 {
        fill: #749f5c;
      }
    </style>
  </defs>
  <path class="cls-22" d="M706.89,603.67c-5.44-8.18-.65-11.57.14-13.27,13.33-28.52,291.66-87.88,415.51-3.01,0,0,0,0,.01,0,.95-.61,1.88-1.22,2.81-1.83.42-.27.84-.54,1.26-.82,1.03-.68,2.04-1.36,3.04-2.04.29-.2.6-.4.89-.6.7-.48,1.38-.96,2.06-1.44.57-.4,1.16-.8,1.73-1.2.74-.53,1.46-1.05,2.18-1.57.48-.35.98-.7,1.46-1.05.85-.63,1.68-1.25,2.5-1.87.33-.25.68-.5,1-.75.79-.6,1.56-1.21,2.33-1.81.34-.27.7-.54,1.04-.81.64-.51,1.26-1.02,1.89-1.53.45-.36.91-.73,1.35-1.09.49-.4.95-.8,1.43-1.2.56-.47,1.13-.94,1.68-1.41.5-.43.97-.85,1.45-1.27.51-.45,1.03-.89,1.53-1.34.6-.54,1.18-1.07,1.76-1.61.36-.33.74-.67,1.09-1,.63-.59,1.24-1.17,1.85-1.76.29-.28.6-.56.89-.85.6-.58,1.17-1.16,1.75-1.75.29-.29.58-.57.86-.86.52-.53,1.02-1.06,1.53-1.59.32-.34.66-.68.97-1.01.42-.45.82-.89,1.23-1.34.39-.42.78-.84,1.16-1.26.51-.58,1.01-1.15,1.51-1.73.25-.29.51-.58.76-.87.46-.53.89-1.07,1.33-1.6.27-.33.56-.67.83-1,.48-.59.94-1.19,1.41-1.78.21-.27.44-.55.65-.82.45-.58.88-1.17,1.31-1.75.21-.29.43-.57.64-.86.35-.48.68-.96,1.02-1.44.28-.39.56-.78.83-1.17.31-.45.61-.9.91-1.35.28-.42.57-.83.84-1.25.35-.53.67-1.06,1.01-1.59.21-.34.44-.68.64-1.02.2-.33.4-.67.6-1,.84-1.41,1.66-2.81,2.42-4.22.31-.58.61-1.15.91-1.73.15-.3.32-.59.47-.89.35-.68.68-1.37,1.01-2.05.09-.19.19-.38.28-.57.23-.49.45-.98.67-1.46.18-.39.36-.77.53-1.16.13-.29.25-.58.37-.88.25-.58.51-1.17.75-1.75.08-.19.15-.39.23-.58.28-.68.55-1.37.81-2.05.02-.04.03-.08.05-.12.32-.84.62-1.67.92-2.51.03-.1.07-.2.1-.3.27-.78.54-1.56.79-2.34.09-.26.16-.53.25-.8.19-.62.39-1.23.57-1.85.08-.26.15-.53.22-.79.18-.62.36-1.24.53-1.87.03-.11.06-.22.09-.33.44-1.66.85-3.33,1.21-5,.14-.66.28-1.32.41-1.98.05-.23.1-.46.14-.7.1-.53.2-1.05.29-1.58.07-.37.14-.74.2-1.11.05-.31.1-.63.15-.94.1-.58.2-1.17.29-1.75.06-.4.11-.8.17-1.2.07-.5.15-1,.21-1.5.08-.58.14-1.16.21-1.73.04-.33.08-.65.12-.98.07-.6.13-1.2.19-1.81.03-.3.07-.61.1-.91.04-.45.08-.9.12-1.35.04-.46.08-.92.12-1.38.11-1.34.19-2.69.26-4.05.08-1.4.14-2.8.19-4.21.05-1.41.08-2.83.1-4.25.04-2.79.03-5.6-.02-8.43-.02-1.06-.04-2.12-.07-3.18-.08-3.16-.21-6.35-.36-9.57-.01-.3-.03-.6-.04-.9-.03-.67-.06-1.33-.1-2,0-.01,0-.02,0-.04-.16-3.16-.34-6.34-.53-9.56-.08-1.32-.15-2.64-.23-3.96-.05-.86-.1-1.73-.15-2.6-.05-.91-.1-1.82-.16-2.73-.14-2.51-.28-5.04-.4-7.59-.06-1.13-.11-2.27-.16-3.42-4.35-97.88-67.07-186.03-155.98-227.19-4.24-1.96-8.62-3.88-13.14-5.73-.12-.05-.23-.1-.35-.15-1.21-.49-2.43-.98-3.66-1.47-.35-.14-.69-.28-1.03-.41-.82-.32-1.66-.64-2.5-.96-.77-.29-1.53-.59-2.3-.88-.7-.26-1.41-.52-2.12-.77-.92-.34-1.84-.68-2.77-1.01-.89-.32-1.79-.62-2.69-.94-.77-.27-1.53-.54-2.3-.8-.84-.29-1.7-.56-2.55-.84-.85-.28-1.69-.57-2.55-.84-.86-.28-1.75-.55-2.62-.82-.86-.27-1.71-.54-2.58-.81-.95-.29-1.91-.57-2.86-.85-.81-.24-1.62-.49-2.44-.72-.92-.26-1.85-.52-2.78-.77-.88-.24-1.74-.49-2.63-.73-.86-.23-1.73-.45-2.6-.68-.97-.25-1.93-.51-2.91-.76-.89-.23-1.8-.44-2.71-.66-.97-.24-1.93-.48-2.9-.71-.95-.22-1.92-.44-2.87-.65-.95-.22-1.89-.44-2.85-.65-.92-.2-1.86-.39-2.79-.59-1.01-.21-2.02-.43-3.04-.64-.99-.2-2-.39-3-.58-.98-.19-1.96-.39-2.95-.57l-.03-.04-1.9-2.77-.08-.12-.02-.03s-.02,0-.03-.01c-.91-.4-1.81-.76-2.72-1.12-.45-.18-.91-.39-1.36-.56-1.07-.42-2.15-.79-3.22-1.16-.3-.1-.59-.22-.89-.32-2.74-.92-5.49-1.69-8.24-2.32-.44-.1-.87-.17-1.31-.26-.94-.2-1.88-.41-2.83-.57-.59-.1-1.18-.18-1.77-.27-.79-.12-1.58-.26-2.37-.36-.63-.08-1.26-.12-1.9-.19-.75-.08-1.5-.17-2.26-.22-.66-.05-1.31-.06-1.97-.09-.74-.04-1.48-.09-2.23-.1l-.04-.05h0s-1.25-1.57-1.25-1.57c-19.67,2.23-36.84,6.91-53.98,17.2-2.92,1.75-8.59,7.11-11.09,7.71-2.07.5-7.28-.86-10.56-.67-14.92.87-33.71.77-47.73,5.25-9.95,3.18-25.78,23.12-29.62,23.45-6.72.57-14.54-.03-21.87,1.21-4.65.79-11.13,7.71-14.59,11.35-1.93,2.03-2.7,5.3-5.32,7.38-3.58,2.83-7.74,2.33-11.1,4.36-.9.54-15.38,15.9-18.13,17.04-1.41.58-5.15-.68-7.49.34-.3.13-13.12,8.37-13.46,21.75-.1,4.13.7,8.89,1.01,13.28.44,6.29,4.52,14.05,5.55,19.95.1.54,1.96,17.86-.94,28.78-4.32,16.26-35.18,38.01-35.57,40.71-.42,2.94,1.73,5.01,2.07,7.69.49,3.92-1.22,8.23-.97,12.19,1.09,16.96,5.66,51.71,5.6,52.85-.03.47-25.13-1.5-31.96,5.67-1.04,1.09-1.06,2.79-1.82,3.7-1.99,2.35-4.26,2.05-4.82,6.32-4.35,33.6,18.31,81.35,35.29,109.69,2.3,3.85,4.13,6.2,6.36,9.54.09.13.17.26.26.39,6.33,9.58,9.97,21.68,20.4,27.6,18.79,10.67,46.91,16.63,63.73,20.79.66.16,1.28.32,1.89.47,39.48,9.71-28.03-9.13-35.13-19.81Z"/>
  <g>
    <path class="cls-17" d="M1010.01,219.7c-.32-1.69-2.31-3.85-3.19-5.74-.65-1.41-.88-4.83-1.07-4.99-.81-.7-4.37.98-5.87.75-4.97-.74-9.45-3.43-16.6-2.94-8.84.6-10.9,11.32-4.57,16.54,1.62,1.34,3.91,1.15,5.54,3.29,1.7,2.23,1.51,5.6,2.9,8.14,1.61,2.94,6.74,7.06,9.14,10.72,3.94,5.99,7.91,16.17,11.84,21.27,1.71,2.22,4.78,3.21,6.48,5.66,1.29,1.86,1.98,6.58,3.96,7.03,3.82.88,6.07-2.55,6.05-5.91-.07-11.11-3.18-21.83-6.46-32.3-1.21-3.86,1.74-3.08,4.72-7.36,3.84-5.52-6-5.46-6.14-6.47-.04-.3-6.43-6-6.75-7.69Z"/>
    <g>
      <path class="cls-6" d="M725.6,285.96c1.33,1.79,3.54,1.33,4.12,2,1.43,1.63-2.13,5.37,5.16.81,5.24,6.27,1.37,5.66-.54,8.58-.73,1.11-5.61,9.02-5.59,9.57.04,1.07,1.21,8.81,1.44,9.21.16.28,4.23,2.74,5.27,3.55.19.15,1.32-.29,1.95.25.75.64.78,2.33,1.36,3.06,5.46,7,6.38,12.76,11.81,18.06,2.83,2.77,5.79,6.35,8.06,10.63,4.04-2.94,3.91.74,4.41,4.41,1.68.62,4.31,1.59,5.57,2.71l19.79,29.91c1.25,3.5,13.21-2.78,13.36-3.5,1.19-5.61-8.7-10.9-10-15.34-.78-2.67,3.32-1.22,5.48-2.21,6.39-2.91,1.84-7.81,1.18-11.07-.4-1.97.21-4.22-.28-6.34-.48-2.07-8.1-11.74-9.74-12.4-1.84-.73-3.91.83-5.98.62-4.38-.45-9.04-1.14-11.63-5.01,3.01-4.57,7.16-1.06,10.21-1.81,7.35-1.79-4.9-12.63-4.75-16.41-6.36,3.52-4.52-3.62-8.27-6.59-1.79-1.42-3.92-.97-5.59-2.18-1.02-.74-1.14-2.67-2.33-3.44-3.76-2.44-5.68-1.57-9.01-7.25-6.12-10.42-2.77-15.04-5.3-23.4-1.04-3.44-5.78-7.1-5.87-7.57-.53-2.7.15-5.89-.51-9.22-1.48-7.37-6.58-18.57-15.8-14.65-2.16.92-2.42,3.98-3.93,5.54-1.81,1.86-5.12.45-4.97,7.55.15,6.99,7.41,11.02,9.02,16.15,1.47,4.68-.43,12.62,1.9,15.77Z"/>
      <path class="cls-6" d="M763.06,258.99l.23,2.52c8.29,14.33,17.04,28.36,26.46,41.97,5.91,8.54,14.73,22.14,21.26,29.51,1.26,1.42,3.72,2.05,3.84,2.24.23.39-1.32,2.03-.89,3.03.06.13,1.6.29,2.43,1.54,3.16,4.79,5.56,10.83,9.08,15.16,1.18,1.46,3.56,2.21,3.68,2.42.73,1.25-1.63,4.08.06,6.74.26.4,4.88,3.94,5.2,4,1.36.22,2.61-2.01,4.24-2.08,1.75-.07,3.28,1.99,5.33,1.93,5.97-.19,10.1-5.36,9.53-11.19-.28-2.82-5.89-15.83-7.9-16.99-2.58-1.49-25.12,1.93-25.13-4.11,0-4,13.71-2.58,16.54-2.75l-.06-4.91c-8.84-9.62-20.81-40.8-31.18-46.09-4.55-2.32-11.42-1.46-14.78-4.53-1.34-1.22-7.31-12.33-7.57-13.95-.31-1.9,2.34-10.1,1.47-14.69-.5-2.63-12.66-29.21-14.08-30.08-7.22-4.43-11.5,11.24-8.85,16.01-1.06.22-4.1-.31-4.42,0-.48.46-.15,12.32.52,13.3,1.16,1.72,28.74,9.79,5.02,11Z"/>
      <path class="cls-10" d="M839.7,268.95c-1.75-.16-17.6,2.56-18.14,3.31,1.77,14.22,12.06,22.02,19.82,32.56,8.29,11.26,15.86,23.03,24.34,34.15,3.12,4.1,12.24,12.12,13.16,16.64.32,1.57-.31,5.58.09,5.98.32.32,4.74-.51,6.12,2.25.86,1.73-2.83,4.68-.38,7.46,3.55,4.02,22.05,2.38,18.27-9.99-14.35-21.53-29.75-42.52-41.25-65.8-7.18-6.05-12.25-25.68-22.04-26.55Z"/>
      <path class="cls-4" d="M1034.44,420.78c-.26-1.84-1.92-5.92-1.78-6.8.32-1.95,7.57-2.89,7.24-6.36-.13-1.34-3.86-7.72-4.88-9.5-6.62-11.44-17.28-20.73-24.14-32.14-3.79-.82-8.74-4.03-12.33-4.33-2.79-.23-4.86,1.07-6.58.99-2.13-.1-2.9-2.71-5.45-3.23-6.78-1.39-10.39,3.87-8.64,9.94,3.87,2.77,4.91,7.88,7.5,11.07,1.88,2.31,4.9,3.32,6.64,5.5,2.57,3.23,2.47,8.03,5.56,10.97,10.32-14.28,7.48,4.35,8.54,11.34,1.97,12.97,19.97,30.26,25.66,42.82.86,2.23,5.54,1.77,6.93.78.29-.21,3.06-5.65,3.05-6.45-.05-5.85-5.8-12.48-6.93-17.31-.58-2.49-.06-4.89-.4-7.32Z"/>
      <path class="cls-26" d="M807.71,445.36c-.32-1.74-5-8.85-6.52-9.85-2.54-1.66-6.12-1.19-8-2.49-.77-.53-2.97-4.27-4.69-5.79-1.53-1.35-4.16-1.59-5-2.72-1.81-2.43-2.01-11.41-3.03-14.63-.48-1.5-2.25-2.26-2.77-3.85-2.06-6.28-2.86-14.01-6.18-19.79-.33-.57-5.33-6.76-6.21-7.56-.8-.74-6.79-4.74-7.22-4.74-1.78,0-5.98,9.5-12.67,2.02-1.01,7.03-1.25,13.59,2.79,19.85,7.19,11.13,7.2,7.66,10.96,22.13,1.23,4.75,24.69,40.92,28.72,45.22,6.94,7.41,6.59,3.14,13.91-.72,1.61-5.56,7.15-10.28,5.91-17.08Z"/>
      <path class="cls-25" d="M792.04,500.09c-1.44-6.22-5.83-14.06-7.76-16.78-3.85-5.43-12.63-10.09-14.49-13.11-1.78-2.9-.84-6.21-1.73-9.31-.33-1.15-5.83-10.42-6.37-10.74-2.09-1.26-11.43-.47-12.96-4.15-1.92-4.61,5.73-1.21,5.36-5.33-.26-2.89-7.4-7.75-7.73-11.69-8.32,2.55-3.85-2.5-4.49-5.88-.16-.83-2.83-4.55-3.61-5.26-5.87-5.38-9.23,1.25-10.53.04l1.1-3.29c-4.29-.52-7.62,5.72-6.51,9.18.46,1.43,3.96,2.85,5.43,4.59,2.1,2.49,2.73,6.23,4.45,8.56,1.81,2.46,5.8,4.23,7.06,7.53,2.67,7.03-.04,4.73,5.05,11.46,5.14,6.8-.43,10.26-.03,14.34.18,1.86,7.65,13.05,9.39,14.98,2.86,3.17,6.18,4.1,7.95,5.85,2.24,2.19,6.54,9.23,8.72,10.58.43.27.87.47,1.32.62v-2.2h20.37Z"/>
      <path class="cls-17" d="M892,273.04c-.32-1.69-2.31-3.85-3.19-5.74-.65-1.41-.88-4.83-1.07-4.99-.81-.7-4.37.98-5.87.75-4.97-.74-9.45-3.43-16.6-2.94-8.84.6-10.9,11.32-4.57,16.54,1.62,1.34,3.91,1.15,5.54,3.29,1.7,2.23,1.51,5.6,2.9,8.14,1.61,2.94,6.74,7.06,9.14,10.72,3.94,5.99,7.91,16.17,11.84,21.27,1.71,2.22,4.78,3.21,6.48,5.66,1.29,1.86,1.98,6.58,3.96,7.03,3.82.88,6.07-2.55,6.05-5.91-.07-11.11-3.18-21.83-6.46-32.3-1.21-3.86,1.74-3.08,4.72-7.36,3.84-5.52-6-5.46-6.14-6.47-.04-.3-6.43-6-6.75-7.69Z"/>
      <path class="cls-17" d="M812.62,203.56c2.19,4.85,4.86,13.75,10.8,15.48,3.12.91,6.69-1.03,9.23,1.8,3.55,3.96,1.24,11.68,2.41,16.35.58,2.31,9.61,15.39,11.56,16.05.72.24,5.88-.13,6.61-.49,1.65-.8,1.63-2.52,2.58-3.08,2.51-1.46,7.2-1.01,6.57-6.15l2.17,1.1c3.25-6.28-1.37-8.72-2.14-12.72-.56-2.91.52-8.61-.53-11.06-1.11-2.61-4.9-3.26-6.21-5.38-1.69-2.73-.75-7.5-3.7-9.54-2.51-1.74-6.68-.71-9.79-2.34-2.54-1.33-2.66-3.66-3.16-3.97-.32-.2-1.64.7-2.32.45-5.73-2.14-20.1-7.48-25.12-2.36-3.63,3.71.6,4.92,1.03,5.86Z"/>
      <path class="cls-4" d="M1019.18,460.88l-3.31,1.1,1.1-4.41c-1.48-2.1-4.02-7.41-6.02-8.9-1.46-1.09-3.79-.89-3.93-1.04-.24-.25,1.43-2.14.99-3.13-.08-.19-1.65-.21-2.07-.96-9.64-17.38-9.61-4.22-24.29-1.41-.58,3.65,3,6.2,3.3,9.48.58,6.24-5.68,18.86,4.36,22.03,7.93,2.5,9.93-3.72,14.08,6.89.73,1.87,1.93,9.56,2.67,10.02.91.57,3.18-.15,4.57.16,1.41.31,4.14,6.67,11.02,5.29,5.34-1.07,4.4-5.87,4.11-10.27-.59-8.98-2.32-17.31-6.6-24.85Z"/>
      <path class="cls-4" d="M1135.14,389.14l-3.31,1.1,1.1-4.41c-1.48-2.1-4.02-7.41-6.02-8.9-1.46-1.09-3.79-.89-3.93-1.04-.24-.25,1.43-2.14.99-3.13-.08-.19-1.65-.21-2.07-.96-9.64-17.38-9.61-4.22-24.29-1.41-.58,3.65,3,6.2,3.3,9.48.58,6.24-5.68,18.86,4.36,22.03,7.93,2.5,9.93-3.72,14.08,6.89.73,1.87,1.93,9.56,2.67,10.02.91.57,3.18-.15,4.57.16,1.41.31,4.14,6.67,11.02,5.29,5.34-1.07,4.4-5.87,4.11-10.27-.59-8.98-2.32-17.31-6.6-24.85Z"/>
      <path class="cls-5" d="M1124.17,477.29c-2.58-1.67-3.79-8.42-1.33-9.72-3.57-1.23-5.84-2.93-3.31-6.62l-2.84-.34c-2.8-5-6.53-7.71-11.22-10.29,1.27-12.96.7-13.33-12.97-12.59-.92-.07-1.84-.27-2.61-.8-1.55-1.06-14.12-20.61-10.14-23.54-11.34-7.96-12.18,10.89-5.33,17.34.13,4.33,2.36,8.12,6.68,11.35,1.47,10.69,6.88,16.11,16.21,16.27l7.45,9.97c.38,3.92,6.49,9.88,10.17,10.52,2.62.45,5.78-.71,8.19-1.73l1.94,1.51c-.68-.59-.93-1.05-.88-1.32Z"/>
      <path class="cls-5" d="M1114.92,478.82c-3.68-.64-9.79-6.6-10.17-10.52l-7.45-9.97c-9.33-.15-14.74-5.58-16.21-16.27-4.32-3.23-6.55-7.01-6.68-11.35-6.85-6.45-6.01-25.31,5.33-17.34-3.98,2.93,8.6,22.48,10.14,23.54.77.53,1.69.74,2.61.8,13.67-.74,14.24-.37,12.97,12.59,4.69,2.57,8.42,5.28,11.22,10.29l2.84.34c-2.09-3.36-4.63-6.89-7.67-9.46-1.52-1.29-4.09-1.49-4.31-1.73-1.38-1.54,1.15-6.81.71-8.97-1.61-8.01-11.58-4.35-17.21-5.46-1.1-4.64-8.71-12.9-9.73-16.3-.7-2.34.53-3.44.61-5.15.33-6.71-13.01-7.4-14.21,3.59-.79,7.18,2.29,8.63,4.63,14.04.75,1.73-.05,3.62.53,4.87.85,1.87,5.41,4.63,6.76,7.61,1.99,4.36,1.81,9.99,6.27,13.6,3.13,2.53,8.02,1.3,10.17,2.53.53.3,6.53,8.8,7.16,9.95.86,1.56.43,4.23,1.07,4.99.41.49,2.57.44,3.63,1.29,1.34,1.07,2.61,3.31,3.88,3.89,4.15,1.89,9.45.3,13.23-1.64l-1.94-1.51c-2.4,1.02-5.57,2.18-8.19,1.73Z"/>
      <path class="cls-17" d="M978.69,413.45c4.12-.28,11.72-3.75,8.93-8.72-9.56-11.8-16.68-29.9-26.45-40.91-1.6-1.8-10.71-9.22-12.38-9.72-3.47-1.04-8.04-.45-8.14,3.62-.2,8.26,2.47,14.52,8.85,19.99,3.56,3.05,7.96,5.07,10.46,9.36.71,1.22,2.19,6.54,1.62,7.49-.47.78-3.5.33-4.26,4.07-.67,3.3-.2,8.36,2.96,10.24,2.27,1.35,15.77,4.77,18.42,4.59Z"/>
      <path class="cls-6" d="M720.93,482.66c-2.92-4.87-11.38-14.96-13.13-18.88-5.06-11.29-7.43-24.85-10.71-36.75-.68-2.46.07-5.29-.75-8.08-.36-1.2-6.38-10.06-7.23-10.49-.4-.2-8.51.31-8.83.61-.58.54-.22,14.62.18,15.83.82,2.49,4.4,2.18,5.11,3.18.52.73.97,5.33,1.91,7.48,3.1,7.13,8.64,15.13,10.8,22.3,2.02,6.73.34,12.56,2.75,19.33,3.71,10.38,16.26,21.53,20.64,32.3,5.9.55,4.29-15.72,3.62-19.04-.52-2.57-2.97-5.49-4.35-7.79Z"/>
      <path class="cls-23" d="M784.36,216.2c2.17,4.27,3.27,10.15,5.79,14.04,2.9,4.48,7.79,5.08,11.52,9.46,4.7,5.52,10.61,20.95,14.85,23.78,2.29,1.53,4.83,1.3,6.93-.43,7.11-5.84-1.22-10.31-1.79-12.57-.56-2.25,2.2-3.38,1.94-6.1-.35-3.7-10.56-24.84-13.23-27.73-3.32-3.59-15.41-10.55-20.25-10.64-4.55-.09-8.86,3.17-8.36,8.15.07.68,1.93.73,2.61,2.05Z"/>
      <path class="cls-11" d="M887.1,230.33c.81,2.8,3.81,3.14,4.53,4.39,3.16,5.43-.87,1.8,5.24,7.68,1.58,1.52,2.12,3.55,4.2,4.94,4.5,3.02,4.24-.02,6-.07.36-.01,6.49,2.52,6.71,2.81,3.38,4.49-1.92,4.37-2.8,5.02-6.05,4.46,9.74,22.3,12.25,26.91,1.85,1.04,8.06-3.68,8.51-4.99.47-1.36.18-12.72-.26-14.74-1.05-4.88-11.97-19.2-15.66-24.22-.57-.77-2.26-.97-2.49-1.36-.55-.94,2.04-6.9-1.43-12.34-6.45-10.11-26.71-.67-24.8,5.96Z"/>
      <path class="cls-3" d="M691.21,535.56c-.43-1.08-6.33-8.89-6.82-9.19-3.26-2.03-4.54-.04-8.34-5.45-8.81-12.56-14.77-28.96-20.18-43.28-12.6-1.94-13.38,1.99-10.31,13.06,4.11,14.8,16.54,34.7,28.08,44.76,1.46,1.27,11.12,9.01,11.84,9.21,6.31,1.73,7.76-4.03,5.72-9.11Z"/>
      <path class="cls-26" d="M877.78,473.59c-3.48,1.06-6.62,6.59-11.62,2.89-9.43-6.98-7.88-32.47-14.5-35.16-1.54-.62-3.87-.24-5.65-.97-3.47-1.42-11.32-7.59-12.35.25-.21,1.59,3.64,16.09,4.55,17.48,2.23,3.4,9.11,3.72,11.69,6.52,3.7,4.01,3.8,14.82,10.21,16.83,3.39,1.06,23.33,1.02,26.27-.33,6.6-3.03-1.07-9.81-8.6-7.51Z"/>
      <path class="cls-8" d="M909.83,452.68c-7.97-7.34-15.55-15.5-22.74-23.61-8.65-5.72-12.96,14.53-2.63,14.23-4.74,5.29,4.33,9.72,8.83,11.58.47,1.11-3.41-.27-1.66,1.66,3.9,4.31,9.71,2.28,13.15,5.63,1.83,1.78,3.11,3.15,4.66,4.63,1.91,1.83,1.78,4.45,5.4,5.15,8.89,1.73,15.26-1.28,7.87-9.52-2.97-3.31-9.35-6.51-12.87-9.75Z"/>
      <path class="cls-4" d="M737.87,524.11c.38,3.67,5.63,9.28.91,10.22,1,2.75,10.28,1.04,13.23,2.77-.93-4.34,1.68-2.71,2.92-3.66.86-.66.91-2.33,2.21-2.78,3.55-1.22,10.07.86,7.3-6.5-5.29-3.68-18.63-27.47-22.93-27.9-13.34-1.31-3.09,14.57-2.79,20.57.13,2.61-1.13,4.59-.86,7.28Z"/>
      <path class="cls-9" d="M715.62,347.8c7.86,8.69,7.93,24.98,24.71,22.61,11.85-1.67-.52-7.46-3.1-10.01-3.25-3.22-10.36-14.9-10.53-19.28-.12-3.13,2.46-7.14.47-10.4-.34-.55-6.83-5.38-7.77-5.54-2.24-.38-6.61.75-7.88,2.56-.81,1.16-2.27,8.46-2.42,10.3-.75,9.05,2.27,5.07,6.52,9.77Z"/>
      <path class="cls-15" d="M930.18,413.36c-4.01,7.48-5.8,9.53.64,17.23,1.44,1.72,4.3,2.83,4.93,3.9,1.38,2.34,1.3,9.7,3.32,12.13.56.67,16.27,3.45,17.17,2.82,5.4-3.77-2.03-8.78-2.72-10.51-.44-1.1.6-2.87,0-4.43-2.91-7.53-10.13-15.02-14.95-21.58-1.4-1.9-1.08-4.82-3.82-4.93-.75-.03-3.3.8-3.69,1.35-.54.78-.21,2.78-.88,4.02Z"/>
      <path class="cls-1" d="M899.25,400.29c.72,2.68,6.66,8.75,9.46,9.43,3.87.93,4.34-3.62,5.56,4.87,5.77.12,11.08-6.88,9.7-12.4-.39-1.58-2.58-3.53-3.31-5.58-1.18-3.3-1.42-8.34-3.54-10.81-2.44-2.84-8.92-3.56-12.53-5.1-1.3-.56-1.36-2.11-1.63-2.22-3.1-1.35-7.43.69-8.35,3.8-1.22,4.1.84,5.66,1.73,8.87.31,1.13-.83,3.07-.39,3.65.92,1.22,3.73.83,3.96,1.06.31.31-1.1,2.81-.67,4.43Z"/>
      <path class="cls-10" d="M851.6,393.93c.82,3.37,10.34,16.98,12.98,19.82,6.1,6.57,13.89,1.12,11.9-8.29-.89-4.22-6.29-9.96-7-12.89-.62-2.56,1.74-6.28.39-8.65-.81-1.41-5.99-2.12-7.4-3.06-1.87-1.25-2.96-5.43-3.58-5.79-8.08-4.69-8.43,14.18-7.29,18.86Z"/>
      <path class="cls-14" d="M943.42,303.21c2.81,4.72.73,11.88,9.44,8.17,5.62-2.4,2.87-14.48,1.71-19.32-1.07-4.47-1.16-4.01-3.44-7.04-4.76-6.32-13.89-10.42-14.28.35-.02.64,1.72,11.96,1.89,12.58.56,1.95,3.51,3.33,4.67,5.27Z"/>
      <path class="cls-20" d="M1105.32,325.69c.83.97-.1,5.65,4.78,8.4,2.39,1.35,4.75.88,6.92,1.91,2.84,1.35,12.24,7.91,13,7.95,1.3.06,1.48-1.15.54-2.72-4.38-7.34-11.63-14.82-17.03-21.6-2.93-3.69-1.61-6.4-8.93-6-4.63.26-9.11,4.96-4.98,8.87,1.7,1.61,4.47,1.76,5.7,3.2Z"/>
      <path class="cls-24" d="M680.74,493.03c.43,1.51,16.39,23.56,18.3,25.55,10.56,11.02,11.02-5.18,7.8-10.52-.57-.94-2.39-1.38-3.36-2.39-5.84-6.05-4.29-2.88-9.48-6.02-2.25-1.36-3.5-5.66-5.27-7.44-2.2-2.22-9.42-4.24-7.99.81Z"/>
      <path class="cls-18" d="M889.72,208.52c2.96-12.33-5.56-8.59-7.34-10.37-.35-.35-.17-3.96-1.34-5.84-2.25-3.62-12.12-5.97-15.32-2.32,2.61,3.82,3.93,8.36,6.59,12.15,3.04,4.32,14.88,16.91,17.41,6.38Z"/>
      <path class="cls-27" d="M823.4,473.1c-3.25-1.68-4.8-1.41-5.22-1.66-.51-.3-.65-2.02-1.33-2.44-5.47-3.38-17.36,1.75-11.93,9.14,2.73,3.73,20.43,5.22,22.74,1.61,3.68-5.72-1.72-5.34-4.25-6.65Z"/>
      <path class="cls-15" d="M673.03,480.88c6.32,4.58,9.84-3.76,8.37-9.22-.29-1.08-2.26-1.18-2.67-1.94-1.07-2.03-1.09-4.3-1.97-5.81-.17-.29-4.1-4.79-4.39-4.96-3.84-2.15-6.7,5.4-6.23,8.87.35,2.59,4.89,11.62,6.88,13.06Z"/>
      <path class="cls-9" d="M682.94,384.79c.66.03.68,1.85,1.47,2.15,2.07.76,5.32.71,6.87,1.76,2.15,1.45,1.79,5.67,3.29,6.64,1.65,1.08,5.17.13,5.56.51.27.26-.47,5.09,1.43,7.41,2.26,2.75,11.04,5.75,13.9,3.48.28-.22,1.44-6.05,1.3-7.02-.45-2.98-3.84-2.8-4.38-4.59-.46-1.55,1.53-5,.8-8.42-.59-2.75-4.25-5.78-5.74-8.65-2.21-4.24-3.91-12.48-8.74-14.54-1.19-.51-8.43-.78-9.56-.27-.43.19-6.84,5.67-7.16,6.16-2.61,3.94-3.13,12-5.02,16.49,2.04.66,4.46-1.15,5.97-1.1Z"/>
      <path class="cls-26" d="M842.04,422.39c1.25-1.78.53-11.34-.65-13.55-5.46-4.95-16.9-11.38-17.42-19.27-.1-1.54,2.61-3.21.87-5.85-7.38-.36-12.89,4.77-11.01,12.49.24.99,2.46.31,2.24,2.31-.26,2.47-2.62,4.28-2.38,7.82.04.51,1.96,9.15,2.22,9.93.39,1.17,3.25,6.25,4.02,7.1,3.1,3.41,10.05,2.49,8.23-3.24l1.1,3.32c3.33-1.86,10.77,1.77,12.76-1.05Z"/>
      <path class="cls-6" d="M1110.69,266.72c-3.14-2.73-9.31-1.41-11.69-3.22-.76-.57-3.53-6.89-4.86-8.94-6.63,1.41-4.41-2.99-4.46-4.77-.11-.23-.22-.46-.33-.71-.88-.83-4.38-3.8-5.15-4.45-1.33,1.32-3.15.84-5.47-1.45-2.74-.97,8.5,18.88,9.12,19.06l-1.44,2.26,16.01,17.65,1.65-6.62c-3.42-1.21-1.37-5.51,1.74-4.58.16.05.31.09.47.17.23-.35-.08-1.59.51-2.24,1.39-1.52,4.07-.14,3.9-2.16Z"/>
      <path class="cls-2" d="M971.73,189c2.99.69,5.17,1.95,6.54,3.76l-2.34-2.99c-7.09-2.17-9.62-5.21-7.59-9.15l-4.41-3.31c1.25,1.49.63,2.07-1.1,1.1v5.52c2.81-.47,2.86.04,1.1,2.21,2.46-.3,5.06.65,7.81,2.86Z"/>
      <path class="cls-2" d="M975.92,189.77l2.34,2.99c2.09-5.85-4.63-5.65-7.22-7.69-1.48-1.17-1.82-3.04-2.71-4.45-2.03,3.93.5,6.98,7.59,9.15Z"/>
      <path class="cls-2" d="M963.92,177.31c-.62.1-.78.7-1.1,1.1,1.74.97,2.36.39,1.1-1.1Z"/>
      <path class="cls-2" d="M962.81,183.93c.38.9.27,1.26,1.1,2.21,1.76-2.17,1.71-2.68-1.1-2.21Z"/>
      <path class="cls-2" d="M978.27,192.76c-1.37-1.81-3.55-3.06-6.54-3.76-2.75-2.21-5.35-3.16-7.81-2.86,2.63,3,10.12,7.37,14.35,6.62Z"/>
      <path class="cls-11" d="M957.3,225.87c-2.86,3.18-20.84,1.99-16.55-4.41-.44-2.16.79-2.93-1.1-5.52-2.19,2.43-4.75-.58-3.31-3.31-.84-.84-2.59-1.43-4.41-3.31-3.02.8-3.35-.11-1.1-2.21-1.26-1.36-3.04-4.31-4.43-4.95-5.13-2.37-15.74,1.43-14.39,7.52,3.95,3.92,10.01,9.3,12.64,14.1,1.69,3.08,2.2,8.37,4.57,10.88,2.28,2.42,6.33,2.15,8.82,4.42,2.97,2.71,1.96,8.3,7.76,8.86,7.48.73,5.29-7.2,7.03-8.34,1.84-1.21,8.8-.18,9.5-1.49.59-5.26.3-10.42-5.01-12.24Z"/>
      <path class="cls-10" d="M977.01,247.39c-1.75-.16-17.6,2.56-18.14,3.31,1.77,14.22,12.06,22.02,19.82,32.56,8.29,11.26,15.86,23.03,24.34,34.15,3.12,4.1,12.24,12.12,13.16,16.64.32,1.57-.31,5.58.09,5.98.32.32,4.74-.51,6.12,2.25.86,1.73-2.83,4.68-.38,7.46,3.55,4.02,22.05,2.38,18.27-9.99-14.35-21.53-29.75-42.52-41.25-65.8-7.18-6.05-12.25-25.68-22.04-26.55Z"/>
      <path class="cls-4" d="M1054.49,391.01c.38,3.67,5.63,9.28.91,10.22,1,2.75,10.28,1.04,13.23,2.77-.93-4.34,1.68-2.71,2.92-3.66.86-.66.91-2.33,2.21-2.78,3.55-1.22,10.07.86,7.3-6.5-5.29-3.68-18.63-27.47-22.93-27.9-13.34-1.31-3.09,14.57-2.79,20.57.13,2.61-1.13,4.59-.86,7.28Z"/>
      <path class="cls-26" d="M1061.42,276.95c1.25-1.78.53-11.34-.65-13.55-5.46-4.95-16.9-11.38-17.42-19.27-.1-1.54,2.61-3.21.87-5.85-7.38-.36-12.89,4.77-11.01,12.49.24.99,2.46.31,2.24,2.31-.26,2.47-2.62,4.28-2.38,7.82.04.51,1.96,9.15,2.22,9.93.39,1.17,3.25,6.25,4.02,7.1,3.1,3.41,10.05,2.49,8.23-3.24l1.1,3.32c3.33-1.86,10.77,1.77,12.76-1.05Z"/>
      <path class="cls-4" d="M966.63,336.23c.38,3.67,5.63,9.28.91,10.22,1,2.75,10.28,1.04,13.23,2.77-.93-4.34,1.68-2.71,2.92-3.66.86-.66.91-2.33,2.21-2.78,3.55-1.22,10.07.86,7.3-6.5-5.29-3.68-18.63-27.47-22.93-27.9-13.34-1.31-3.09,14.57-2.79,20.57.13,2.61-1.13,4.59-.86,7.28Z"/>
      <path class="cls-26" d="M1069.37,342.97c1.25-1.78.53-11.34-.65-13.55-5.46-4.95-16.9-11.38-17.42-19.27-.1-1.54,2.61-3.21.87-5.85-7.38-.36-12.89,4.77-11.01,12.49.24.99,2.46.31,2.24,2.31-.26,2.47-2.62,4.28-2.38,7.82.04.51,1.96,9.15,2.22,9.93.39,1.17,3.25,6.25,4.02,7.1,3.1,3.41,10.05,2.49,8.23-3.24l1.1,3.32c3.33-1.86,10.77,1.77,12.76-1.05Z"/>
    </g>
  </g>
  <g>
    <path class="cls-12" d="M895.97,814.81c-.13.1-.25.21-.38.31.13-.1.25-.21.38-.31Z"/>
    <path class="cls-12" d="M901.37,810.41c-.59.48-1.17.96-1.76,1.44.59-.48,1.18-.96,1.76-1.44Z"/>
    <path class="cls-12" d="M897.64,813.44s-.06.05-.09.07c.03-.02.06-.05.09-.07Z"/>
    <path class="cls-12" d="M926.47,818.8c-.24.58-.47,1.16-.72,1.73.25-.57.48-1.15.72-1.73Z"/>
    <path class="cls-12" d="M905.04,807.29c-.53.47-1.07.94-1.61,1.4.54-.46,1.08-.93,1.61-1.4Z"/>
    <path class="cls-12" d="M906.82,805.66c-.48.45-.97.9-1.46,1.34.49-.44.98-.89,1.46-1.34Z"/>
    <path class="cls-12" d="M908.49,804.02c-.48.5-.98.99-1.49,1.48.51-.49,1-.98,1.49-1.48Z"/>
    <path class="cls-12" d="M903.1,808.97c-.51.43-1.02.85-1.53,1.28.51-.42,1.03-.85,1.53-1.28Z"/>
    <path class="cls-12" d="M892.25,818.02c-.09.08-.19.17-.28.25.09-.08.18-.17.28-.25Z"/>
    <path class="cls-12" d="M910.23,802.12c-.46.53-.93,1.04-1.42,1.55.49-.51.96-1.03,1.42-1.55Z"/>
    <path class="cls-12" d="M930.23,808.26s-.03.09-.04.14c.01-.05.03-.09.04-.14Z"/>
    <path class="cls-12" d="M928.58,813.23c-.16.45-.31.9-.47,1.34.16-.44.31-.9.47-1.34Z"/>
    <path class="cls-12" d="M892.94,822.65c.37-.18.75-.37,1.12-.56-.37.19-.75.37-1.12.56Z"/>
    <path class="cls-12" d="M927.5,816.19c-.17.46-.34.93-.52,1.38.18-.46.35-.92.52-1.38Z"/>
    <path class="cls-12" d="M929.5,810.52c-.11.33-.21.66-.32.99.11-.33.21-.66.32-.99Z"/>
    <path class="cls-12" d="M931.49,804.04c-.12.4-.23.81-.35,1.22.12-.4.23-.81.35-1.22Z"/>
    <path class="cls-12" d="M896.1,821c.5-.29,1-.58,1.51-.91-.51.33-1.01.62-1.51.91Z"/>
    <path class="cls-12" d="M894.57,821.83c.35-.18.7-.37,1.05-.57-.35.19-.7.38-1.05.57Z"/>
    <path class="cls-12" d="M932.45,800.7c-.13.46-.25.91-.38,1.37.13-.45.26-.91.38-1.37Z"/>
    <path class="cls-12" d="M893.96,816.51c-.09.08-.19.16-.28.25.09-.08.19-.16.28-.25Z"/>
    <path class="cls-12" d="M982.68,831.77c-.17-.11-.34-.23-.52-.35.18.12.36.24.52.35,0,0,0,0,0,0Z"/>
    <path class="cls-12" d="M922.17,149.13c.74.01,1.48.07,2.23.1-.72-.03-1.44-.09-2.16-.1-.04-.02-.07-.04-.11-.06h0s.04.05.04.05Z"/>
    <path class="cls-12" d="M974.96,820.8c0,.07,0,.13,0,.2,0-.07,0-.13,0-.2,0,0,0,0,0,0Z"/>
    <path class="cls-12" d="M988.2,842.81h0c.1.05.21.1.32.14-.1-.05-.22-.09-.32-.14Z"/>
    <path class="cls-12" d="M989.45,843.27c.24.11.48.23.71.36,0,0,0,0,0,0-.23-.13-.47-.25-.71-.36Z"/>
    <path class="cls-12" d="M955.23,156.67c-.9-.4-1.81-.76-2.72-1.12.91.37,1.81.73,2.72,1.12,0,0,0,0,0,0Z"/>
    <path class="cls-12" d="M1122.55,587.38c.95-.61,1.88-1.22,2.81-1.83-.93.61-1.85,1.22-2.81,1.83,0,0,0,0,0,0Z"/>
    <path class="cls-12" d="M957.3,159.65c.99.18,1.97.38,2.95.57-.96-.19-1.92-.38-2.89-.56-.03-.02-.06-.04-.1-.06l-1.89-2.76,1.9,2.77.03.04Z"/>
    <path class="cls-12" d="M912.98,798.48c-.36.56-.75,1.12-1.15,1.66.4-.54.79-1.09,1.15-1.66Z"/>
    <path class="cls-12" d="M915.09,794.46c-.26.62-.54,1.24-.85,1.83.31-.6.59-1.21.85-1.83Z"/>
    <path class="cls-12" d="M915.94,792.06c-.2.68-.43,1.34-.68,1.98.25-.65.49-1.3.68-1.98Z"/>
    <path class="cls-12" d="M914.09,796.57c-.29.54-.6,1.07-.92,1.59.33-.52.63-1.05.92-1.59Z"/>
    <path class="cls-12" d="M911.56,800.48c-.39.52-.8,1.02-1.23,1.52.43-.5.83-1.01,1.23-1.52Z"/>
    <path class="cls-12" d="M992.82,844.49c-1.33-.38-2.31-.67-2.65-.87.11.06.21.13.31.19.69.25,1.49.47,2.34.68Z"/>
    <path class="cls-12" d="M842.52,811.91s.03-.01.04-.01c-.03,0-.06.01-.08.02.01,0,.03,0,.04,0Z"/>
    <path class="cls-12" d="M1018.6,863.44c-.2-.25-.38-.47-.52-.61-.13-.13-.26-.27-.39-.4.3.36.6.69.88.98.01.01.02.03.03.04Z"/>
    <path class="cls-12" d="M947.36,791.68v-1.67c-.05.1,0,.76,0,1.67Z"/>
    <path class="cls-12" d="M852.53,807.6s.06-.05.09-.08c-.03.03-.07.06-.1.09,0,0,0,0,0,0Z"/>
    <path class="cls-12" d="M924.13,846.98s0,.05.01.07c.03.12.04.23.04.35,0,2.15.01,4.29,0,6.44.01-2.21,0-4.42,0-6.62-.02-.07-.04-.17-.05-.24Z"/>
    <path class="cls-12" d="M810.9,885.28s-.07.07-.1.1l.23.03s-.08-.09-.12-.13Z"/>
    <polygon class="cls-12" points="885.77 858.16 885.56 858.26 885.56 858.26 885.77 858.16"/>
    <path class="cls-12" d="M917.92,844.13c-.16.05-.32.11-.48.16.21-.07.43-.13.64-.2-.05.01-.11.02-.16.04Z"/>
    <path class="cls-12" d="M885.71,858.22c.61-.18,1.24-.33,1.87-.45-.64.13-1.26.27-1.87.45Z"/>
    <path class="cls-12" d="M915.94,792.06c.09-.32.12-.57.09-.76,0,.26-.02.52-.09.76Z"/>
    <path class="cls-12" d="M886.39,857.87h0c-.19.14-.4.24-.61.32.21-.08.42-.18.61-.32Z"/>
    <path class="cls-12" d="M890.29,819.89c.06-.06.13-.13.19-.19-.05.05-.1.1-.15.15-.01.01-.02.03-.04.05Z"/>
    <path class="cls-12" d="M815.88,881.09c1.3.1,2.58.25,3.88.31-1.54-.1-2.61-.38-3.88-.31Z"/>
    <path class="cls-12" d="M893.3,891.05c-1.22,1.02-2.28,2.12-2.83,2.87.5-.67,1.45-1.69,2.83-2.87Z"/>
    <path class="cls-12" d="M921.98,869.9s0,0,0,0c1.48-.49,3.62-1.85,5.44-3.49-1.81,1.64-3.96,3-5.44,3.49,0,0,0,0,0,0Z"/>
    <path class="cls-12" d="M1022.98,885.36c-.4.38-1.26.26-2.78-.61,1.81,1.04,2.61,1.12,2.78.61Z"/>
    <path class="cls-12" d="M937.53,813.29c-.74,4.06-2.37,8.91-3.13,13.65.76-4.78,2.4-9.33,3.1-13.47,0-.06.02-.12.03-.17Z"/>
    <path class="cls-12" d="M938.53,794.24s0,.07,0,.1c0,.02,0,.04,0,.06,0-.05,0-.11,0-.16h0Z"/>
    <path class="cls-12" d="M913.77,839.22c-.41.43-.85.84-1.27,1.26.43-.42.86-.83,1.27-1.26Z"/>
    <path class="cls-12" d="M906.11,845.38c-.18.1-.36.2-.54.3.19-.1.36-.2.54-.3Z"/>
    <path class="cls-12" d="M925.39,821.33c-.31.7-.62,1.39-.95,2.08.33-.69.64-1.38.95-2.08Z"/>
    <path class="cls-12" d="M908.61,843.99c.09-.05.17-.11.25-.17h0c-.09.06-.17.11-.25.17,0,0,0,0,0,0Z"/>
    <path class="cls-12" d="M919.26,832.39c-1.61,2.34-3.39,4.6-5.41,6.74,2.02-2.14,3.8-4.4,5.41-6.74Z"/>
    <path class="cls-12" d="M911.42,841.56c-.35.33-.74.65-1.11.98.37-.33.75-.64,1.11-.98Z"/>
    <path class="cls-12" d="M920.8,830.04c-.34.54-.67,1.09-1.02,1.63.36-.53.69-1.08,1.02-1.63Z"/>
    <path class="cls-12" d="M923.93,824.41c-.3.61-.6,1.22-.92,1.82.32-.6.62-1.21.92-1.82Z"/>
    <path class="cls-12" d="M922.6,826.96c-.37.68-.75,1.36-1.14,2.03.4-.67.77-1.35,1.14-2.03Z"/>
    <path class="cls-12" d="M892.55,822.85s-.04.02-.06.03c0,0,0,0,0,0,.02,0,.04-.02.06-.03Z"/>
    <path class="cls-12" d="M903.19,846.95c-.37.19-.73.38-1.1.57.37-.19.73-.38,1.1-.57Z"/>
    <path class="cls-12" d="M901.99,847.56c-.56.29-1.12.57-1.68.84.55-.27,1.12-.55,1.68-.84Z"/>
    <path class="cls-12" d="M904.78,846.1c-.31.16-.61.33-.92.49.31-.17.61-.33.92-.49Z"/>
    <path class="cls-12" d="M899.9,848.6c-1.6.77-3.14,1.46-4.4,1.93,1.27-.47,2.8-1.16,4.4-1.93Z"/>
    <path class="cls-12" d="M932.97,798.85s0-.01,0-.02c.03-.11.05-.23.06-.34,0-.01,0-.02,0-.03,0,0,0,.01,0,.02-.02.12-.04.25-.06.37Z"/>
    <path class="cls-21" d="M918.81,844.04c-.24-.05-.48-.01-.72.05-.21.06-.43.13-.64.2-.25.08-.51.17-.76.25-.28.1-.56.2-.84.31-.25.1-.5.19-.75.29-.28.11-.55.23-.82.35-.25.11-.49.21-.74.33-.27.12-.54.25-.81.38-.24.12-.49.23-.73.36-.27.13-.54.27-.8.41-.24.12-.48.25-.72.38-.27.14-.54.29-.8.44-.24.13-.47.26-.71.39-.27.15-.54.31-.8.46-.23.13-.47.27-.7.4-.28.16-.55.32-.82.49-.23.14-.47.28-.7.42-.3.18-.61.36-.91.55-.39.23-.78.47-1.17.7-.25.15-.5.3-.75.45-.27.16-.55.32-.82.48-.22.13-.44.26-.67.39-.28.16-.56.32-.84.48-.22.12-.44.25-.66.37-.29.16-.58.31-.87.47-.21.11-.42.23-.63.34-.31.16-.62.31-.92.47-.19.1-.39.2-.58.29-.35.17-.7.32-1.04.48-.16.07-.32.15-.48.22-.51.22-1.02.43-1.54.63-1.86.71-3.68,1-5.43,1.31-.35.06-.7.13-1.04.19-.64.13-1.26.27-1.87.45-.05.01-.1.03-.15.04h0c-.6.18-1.21.36-1.84.54-9.34,2.61-20.86,4.31-29.05,7.76-6.83,2.87-11.33,6.83-16.77,9.95-1.51.87-3.1,1.67-4.83,2.37-.69.28-1.41.54-2.15.78-1.48.49-3.08.89-4.81,1.2-1.3.23-2.69.41-4.17.52h0c-.43.03-.81.04-1.18.04-.02,0-.04,0-.06,0-.33,0-.65,0-.95-.03-1.29-.06-2.58-.21-3.88-.31-.97.05-2.07.31-3.6,1.04-.67.32-1.05,1.04-.94,1.77.08.53-.11,1.02-.44,1.38.05.04.07.09.12.13l-.23-.03c-.1.1-.22.18-.34.25.88.14,1.7.25,1.91.26,17.8.93,27.25-3.03,42.3-11.08l12.14-4.41c18.03-6.18,37.8-9.35,52.76-21.89.14-.12.28-.26.39-.41.75-.97,1.3-1.75,1.71-2.4-.42-1.14-.74-1.97-.79-2.07,0,0-1.58.52-2.06.42Z"/>
    <path class="cls-21" d="M885.77,858.19c.21-.08.42-.18.61-.32l-.62.29-.21.1h0s0,0,0,0c.07-.02.14-.05.21-.07Z"/>
    <path class="cls-19" d="M978.21,851.59c4.94,5.41,6.64,14.52,5.52,21.55-.38,2.39-1.14,1.63-2.16,3.88-2.18,4.84-3.61,11.93-3.39,17.12.22,5.02,4.51,11.85,4.44,14.34-.1,3.63-9.59,10.32-7.67,15.99,3.3-.96,9.27-11.07,11.59-10.73,7.13,5.02,9.77,12.26,10.48,20.66.43.44,1.7-.97,1.95-1.89,4.39-15.57-17.72-24.63-14.94-42.55.21-1.34,3.66-11.47,4.16-11.85,1.96-1.45,5.33,5.68,6.72,7.06,3.36,3.32,8.12,5.8,12.03,8.39,0-.06,1.1.17,1.1-.57-.05-3.83-14.03-12.79-16.06-19.23-1.54-4.87-.31-13.25-2.69-18.81-.01-.01-.02-.02-.04-.03-4.3-1.64-8-2.65-11.06-3.35Z"/>
    <path class="cls-7" d="M792.34,810.1c.23-.1.45-.2.66-.29.2-.09.4-.18.6-.27.21-.1.43-.2.63-.3.19-.09.38-.18.56-.27.22-.1.43-.21.64-.31.25-.12.51-.25.75-.36.22-.11.45-.22.67-.33.18-.09.37-.18.55-.26.17-.08.35-.17.52-.25.18-.08.36-.16.53-.24.16-.07.33-.15.5-.22.18-.08.36-.15.53-.22.16-.07.32-.14.49-.2.18-.07.36-.14.55-.2.16-.06.32-.12.49-.18.19-.06.38-.12.57-.18.17-.05.33-.1.5-.15.2-.05.4-.1.6-.15.17-.04.34-.09.51-.12.21-.04.43-.08.64-.12.18-.03.35-.07.53-.09.23-.03.47-.06.71-.09.18-.02.35-.05.54-.06.26-.02.53-.03.8-.05.18,0,.36-.02.54-.03.31,0,.64,0,.97,0,.16,0,.32,0,.48,0,.51.01,1.03.04,1.58.09.65.05,1.31.13,1.96.23.21.03.43.08.64.12.44.08.88.15,1.33.25.27.06.53.13.8.19.4.09.79.18,1.19.29.28.08.57.16.86.24.38.11.76.21,1.14.32.3.09.6.19.9.28.37.12.73.23,1.1.35.34.11.69.23,1.03.35.32.11.65.21.97.33.67.23,1.33.45,2,.68.29.1.58.19.87.29.39.13.77.26,1.16.39.31.1.62.2.93.3.37.12.74.24,1.11.35.31.1.62.18.93.27.37.11.74.22,1.11.32.32.09.64.16.95.24.37.09.73.19,1.1.28.32.07.64.13.97.2.36.07.73.16,1.09.22.32.06.65.09.98.14.36.05.73.11,1.09.15.33.03.65.04.98.07.37.03.73.06,1.1.07.33,0,.65,0,.98-.01.37,0,.73,0,1.1-.02.33-.02.66-.07.99-.11.36-.04.73-.06,1.09-.12.03,0,.06-.01.08-.02.48-.14,1.01-.31,1.55-.5.09-.03.19-.06.28-.1.53-.19,1.08-.4,1.64-.62.13-.05.26-.1.39-.15.57-.22,1.14-.45,1.71-.68.57-.23,1.12-.45,1.67-.66.06-.02.13-.05.19-.08.92-.36,1.78-.86,2.54-1.5.03-.03.07-.06.1-.09.17-.15.35-.3.53-.46.24-.2.47-.41.71-.61.21-.18.42-.37.63-.55.3-.27.61-.53.92-.8.28-.25.57-.49.85-.74.19-.17.39-.33.58-.5.25-.21.49-.43.74-.64.2-.17.39-.34.59-.51.24-.21.49-.41.73-.62.2-.17.41-.34.61-.51.24-.2.49-.41.73-.61.21-.17.41-.34.62-.51.24-.2.49-.39.74-.59.21-.17.42-.34.64-.5.25-.19.49-.38.74-.57.21-.16.43-.32.64-.48.25-.19.5-.37.76-.55.21-.15.43-.31.64-.46.26-.18.51-.35.77-.52.21-.14.43-.29.64-.43.26-.17.52-.33.78-.49.21-.13.42-.27.64-.39.27-.16.54-.31.81-.46.21-.12.41-.23.62-.34.29-.15.57-.29.86-.43.19-.1.39-.2.58-.29.32-.15.64-.28.96-.42.16-.07.32-.14.48-.2.48-.19.97-.36,1.45-.51.87-.27-1.47,4.66-3.87,8.05-.43.61.21,1.4.9,1.11,1.27-.53,2.61-1.11,3.12-1.4,7.4-4.22,4.38-3.31,13.13-7.29,6.41-2.91,11.9-7.43,18.52-11.38,0,0,12.4-3.42,15.05-12.04,1.85-6.01,6.05-18.32,7.78-25.88.21-1.01.34-1.58.34-1.58.98-4.99,2.66-12.07,3.31-16.55.14-.95.27-1.88.4-2.79.05-.34.09-.67.14-1,.08-.57.16-1.14.23-1.7.05-.4.1-.78.15-1.17.06-.48.12-.96.18-1.43.05-.41.09-.82.14-1.23.05-.43.09-.86.14-1.28.04-.42.08-.84.11-1.25.03-.4.07-.79.1-1.18.03-.42.06-.84.08-1.26.02-.38.04-.75.06-1.13,0-.03,0-.06,0-.09-3.81-6.73-8.16-13.71-13.02-20.49,3.7,11.73,6.81,28.54,5.32,38.21-1.04,6.81-8.29,34.53-11.69,39.17-12.04,16.42-26.37,10.38-40.78,15.5-8.59,3.05-18.61,19.19-29.81,22.06-13.9,3.56-27.38-8.55-39.1-7.18-2.72.32-17.34,7.45-14.37,12.58.22.38.7.53,1.1.38.14-.06.28-.12.42-.17.22-.09.43-.18.64-.27Z"/>
    <path class="cls-7" d="M1022.98,885.36c.46-1.38-3.71-7.13-4.93-10.23-.59-1.5-1.21-2.99-1.97-4.41-1-1.87-2.12-4.05-2.6-4.62-4.24-4.91-7.57-9.62-13.24-12.7-.5-.27-1.02-.52-1.55-.75-.1-.04-.19-.09-.29-.13-.51-.22-1.04-.43-1.58-.62-.11-.04-.22-.08-.32-.12-.55-.2-1.11-.39-1.68-.57h0c-.62-.2-1.26-.4-1.89-.6-.61-.19-1.21-.38-1.82-.57-.11-.04-.22-.07-.34-.11-.6-.19-1.2-.39-1.79-.6,0,0-.01,0-.02,0-.56-.2-1.12-.42-1.66-.64-.1-.04-.21-.08-.31-.13-.53-.23-1.06-.47-1.56-.73-.04-.02-.09-.04-.13-.06-1.95-1.01-4.12-1.53-6.31-1.34l-.34.03c-22.09-3.73-34.7-16.29-35.56-38.76-.1-.37-.63-7.03-.71-7.48-.11-8.21.03-12.84.06-16.41.02-2.83.27-5.65.7-8.44,2.07-13.41-3.49-5.58-3.49.3,0,8.24-1.05,10.34-1.11,18.58,0,.05,0,.11,0,.16-.03,6.07.13,12.18-.92,18.43-.02.15-.06.3-.09.45,0,.06-.02.12-.03.17-.7,4.14-2.34,8.69-3.1,13.47-.11.7-.2,1.4-.27,2.09-.93,9.64,2.16,20.43,2.15,30.46,0,3.5-1.47,9.73-4.35,11.72-6.67,4.61-19.91,9.68-20.98,10.23-.75.39-2.13.51-3.31,1.1-5.26,2.64-6.18,3.17-12.36,7.05-.66.42-1.34.93-1.97,1.46-1.37,1.18-2.33,2.2-2.83,2.87-.02.02-.04.05-.05.07-.21.29-.33.51-.35.65-.65,4.2-1.71,8.72-2.19,12.85-.29,2.51-1.82,15.32,3.74,13.67,2.12-.63,1.43-3.76,1.61-5.21.01-.11.06-.2.05-.3-1.09-18.67,8.3-22.18,13.19-27.09,3.58-3.6,15.46-6.71,21.02-9.33,5.99-2.82,14.04-6.92,15.45-14.35.33-1.74,9.4.09,14.12,6.75,6.17,8.7,3.95,15.92-1.98,23.05-7.95,9.56-19.18,15.94-25.95,24.27-.73.9-6.86,9.69-2.21,7.73,2.43-1.02,9.54-8.17,12.8-10.38,10.38-7.03,26.41-13.87,28.6-28.24,1.6-10.46-1.77-16.72-8.83-23.73-.31-.31-4.54-3.97-8-6.42-2.29-1.62-4.05-3.87-5.14-6.46-2.28-5.41-5.39-14.33-3.73-19.53.02-.08.12-.1.18-.04,7.44,7.55,16.61,13.17,26.31,17.62,1.49.68,4.6,1.05,9.09,2.08,3.06.7,6.76,1.71,11.06,3.35.01,0,.02.02.04.03,0,0,0,0,.01,0l.1.14c1.69,2.24,3.88,4.03,6.33,5.38,8.36,4.6,15.35,11.13,19.86,19.58,1.05,1.97,2.62,3.62,4.58,4.68,1.52.87,2.37.99,2.78.61Z"/>
    <path class="cls-7" d="M921.98,869.9s0,0,0,0c1.48-.49,3.62-1.85,5.44-3.49.6-.55,1.17-1.12,1.66-1.71.18-.21.35-.43.51-.64.63-.85,1.08-1.71,1.22-2.5.71-3.88-.05-10.92-1.01-15.81-.35-1.78-.07-4.24-.01-6.06.02-.59.04-1.24.06-1.92,0-.02,0-.04,0-.06.02-.65.04-1.32.05-2.01,0-.06,0-.12,0-.17.02-.67.03-1.35.04-2.02,0-.05,0-.1,0-.16,0-.34.01-.67.01-1,0-.01,0-.03,0-.04,0-.31,0-.61,0-.91,0-.06,0-.11,0-.17,0-.3,0-.6,0-.89,0-.04,0-.07,0-.11,0-.26,0-.51,0-.75,0-.04,0-.09,0-.13,0-.26,0-.51-.01-.74,0-.04,0-.08,0-.13,0-.21-.01-.41-.02-.6,0-.03,0-.05,0-.08,0-.2-.02-.38-.03-.55,0-.04,0-.07,0-.1-.01-.15-.03-.29-.04-.41,0-.01,0-.02,0-.03-.02-.12-.04-.22-.06-.3,0-.02,0-.03-.01-.05-.02-.07-.04-.13-.07-.15h0c-.16-.14-2.42,5.2-2.82,5.52-1.87,1.52-3.53,11.57-2.75,15.21.02.08.04.17.05.24,0,2.21.01,4.42,0,6.62-.05,7.9-1.05,10.8-6.62,16.55.82-.56,2.72.06,4.42-.5Z"/>
    <path class="cls-19" d="M1063.94,835c.13.02.26.05.41.08l-.09-.03c-.11-.04-.21-.04-.32-.05Z"/>
    <path class="cls-19" d="M1063.56,834.96s.07.01.1.02c.08,0,.17.01.25.02-.13-.02-.24-.03-.35-.04Z"/>
    <path class="cls-19" d="M1263.84,457.27l-1.1-2.61s-.06-.05-.09-.08c-7.31-2.42-13.85-6.56-21.11-9.14-8.58-3.05-8.53.37-9.48-11.49-1.67-20.76.89-44.04.09-65.2-1.49-39.19-3.68-93.41-12.53-130.95-2.69-11.4-2.57-16.2-14.24-21.08-25.88-10.81-65.97-10.09-94.11-12.94-14.15-1.44-11.65-5.55-20.38-10.52-7.22-4.12-18.61-5.12-26.54-8.77-25.48-11.75-51.46-20.32-78.62-28.43-24.3-7.26-39.38-11.42-64.86-8.54l1.25,1.56s.07.04.11.06c.72.02,1.44.07,2.16.1.66.03,1.31.04,1.97.09.75.05,1.5.15,2.26.22.63.06,1.26.11,1.9.19.79.1,1.58.23,2.37.36.59.09,1.18.16,1.77.27.94.17,1.88.37,2.83.57.44.09.87.17,1.31.26,2.75.63,5.5,1.4,8.24,2.32.3.1.59.22.89.32,1.07.37,2.15.75,3.22,1.16.45.18.91.38,1.36.56.91.37,1.81.72,2.72,1.12,0,0,0,0,0,0,.01,0,.02,0,.03.01l.02.03.08.12,1.89,2.76s.06.04.1.06c.97.18,1.93.37,2.89.56,1,.19,2.01.38,3,.58,1.02.21,2.03.43,3.04.64.93.2,1.87.38,2.79.59.96.21,1.9.43,2.85.65.96.22,1.92.43,2.87.65.98.23,1.94.47,2.9.71.9.22,1.81.44,2.71.66.98.25,1.94.51,2.91.76.86.23,1.74.45,2.6.68.88.24,1.75.49,2.63.73.93.26,1.86.51,2.78.77.82.24,1.62.48,2.44.72.96.28,1.92.56,2.86.85.87.26,1.72.54,2.58.81.87.27,1.75.54,2.62.82.86.28,1.7.56,2.55.84.85.28,1.71.56,2.55.84.78.26,1.53.53,2.3.8.9.31,1.8.62,2.69.94.93.33,1.85.68,2.77,1.01.71.26,1.42.51,2.12.77.77.29,1.53.59,2.3.88.83.32,1.67.63,2.5.96.35.14.69.28,1.03.41,1.23.49,2.45.97,3.66,1.47.12.05.23.1.35.15,4.52,1.86,8.9,3.77,13.14,5.73,88.91,41.16,151.63,129.31,155.98,227.19.05,1.14.11,2.28.16,3.42.13,2.55.26,5.08.4,7.59.05.91.1,1.82.16,2.73.05.87.1,1.73.15,2.6.08,1.33.15,2.65.23,3.96.19,3.21.37,6.4.53,9.56,0,.01,0,.02,0,.04.03.67.07,1.33.1,2,.01.3.03.6.04.9.15,3.22.27,6.4.36,9.57.03,1.06.05,2.13.07,3.18.05,2.83.06,5.64.02,8.43-.02,1.42-.05,2.84-.1,4.25-.05,1.41-.11,2.81-.19,4.21-.07,1.35-.16,2.7-.26,4.05-.04.46-.08.92-.12,1.38-.04.45-.07.9-.12,1.35-.03.3-.06.61-.1.91-.06.6-.12,1.21-.19,1.81-.04.33-.08.65-.12.98-.07.58-.14,1.16-.21,1.73-.07.5-.14,1-.21,1.5-.06.4-.11.8-.17,1.2-.09.59-.19,1.17-.29,1.75-.05.31-.1.63-.15.94-.06.37-.14.74-.2,1.11-.1.53-.19,1.05-.29,1.58-.05.23-.1.46-.14.7-.13.66-.27,1.32-.41,1.98-.37,1.67-.77,3.33-1.21,5-.03.11-.06.22-.09.33-.17.62-.35,1.25-.53,1.87-.08.26-.14.53-.22.79-.18.62-.38,1.24-.57,1.85-.08.26-.16.53-.25.8-.25.78-.52,1.56-.79,2.34-.03.1-.07.2-.1.3-.29.84-.6,1.68-.92,2.51-.02.04-.03.08-.05.12-.26.68-.53,1.37-.81,2.05-.08.19-.15.39-.23.58-.24.58-.49,1.17-.75,1.75-.13.29-.24.58-.37.88-.17.39-.36.77-.53,1.16-.22.49-.44.98-.67,1.46-.09.19-.19.38-.28.57-.33.68-.66,1.37-1.01,2.05-.15.3-.31.59-.47.89-.3.58-.6,1.15-.91,1.73-.76,1.41-1.58,2.82-2.42,4.22-.2.33-.39.67-.6,1-.21.34-.43.68-.64,1.02-.33.53-.66,1.06-1.01,1.59-.27.42-.56.83-.84,1.25-.3.45-.6.9-.91,1.35-.27.39-.55.78-.83,1.17-.34.48-.67.96-1.02,1.44-.21.29-.43.57-.64.86-.43.58-.86,1.17-1.31,1.75-.21.27-.43.55-.65.82-.46.59-.93,1.19-1.41,1.78-.27.33-.55.67-.83,1-.44.53-.88,1.07-1.33,1.6-.25.29-.51.58-.76.87-.5.58-.99,1.15-1.51,1.73-.38.42-.77.84-1.16,1.26-.41.45-.81.89-1.23,1.34-.32.34-.65.68-.97,1.01-.51.53-1.01,1.06-1.53,1.59-.28.29-.58.57-.86.86-.58.58-1.15,1.16-1.75,1.75-.29.28-.59.56-.89.85-.61.59-1.22,1.17-1.85,1.76-.36.33-.73.67-1.09,1-.58.54-1.16,1.07-1.76,1.61-.5.45-1.02.89-1.53,1.34-.48.42-.96.85-1.45,1.27-.55.47-1.12.94-1.68,1.41-.48.4-.94.8-1.43,1.2-.44.36-.9.73-1.35,1.09-.63.51-1.25,1.02-1.89,1.53-.34.27-.7.54-1.04.81-.77.6-1.54,1.21-2.33,1.81-.33.25-.67.5-1,.75-.83.62-1.65,1.25-2.5,1.87-.48.35-.97.7-1.46,1.05-.72.52-1.44,1.05-2.18,1.57-.56.4-1.15.8-1.73,1.2-.69.48-1.36.96-2.06,1.44-.29.2-.59.4-.89.6-1,.68-2.01,1.36-3.04,2.04-.41.27-.84.54-1.26.82-.93.61-1.85,1.22-2.81,1.83,0,0,0,0,0,0,0,0,0,0-.01,0-123.85-84.86-402.18-25.51-415.51,3.01-.8,1.7-5.58,5.08-.14,13.27,7.1,10.68,74.62,29.52,35.13,19.81,4.28,2.92,100.09,19.88,108.8,25.14,4.82,2.91,9.74,5.64,15.01,7.62,13.46,5.04,39.03,14.61,39.04,14.62,5.72,5.85,10.98,12.31,15.75,18.97,4.86,6.78,9.21,13.76,13.02,20.49.33-7.45-.52-14.25-3.8-22.43-.44-.9-.84-1.89-1.24-2.9,0,0,0,0,0,0-.69-1.51-2.72-4.54-5-7.69-2.8-3.87-6.47-2.84-7.98-4.53-4.89-5.47-9.37-7.41-9.78-7.41,0,0,0,0-.01,0-5.22-6.69-16.25-12.96-24.35-15.36-8.67-2.56-17.87-4.14-26.09-9.34-8.79-5.57-14.08-18.65-23.93-22.43-8.12-3.11-12.39-.41-20.45-.52-10.57-.14-25.75-3.05-39.35-7.1-8.19-2.44-15.8-5.3-21.48-8.22-3.72-1.91-17.19-9.18-19.7-11.2-1.16-.93-1.95-1.69-1.64-3.3.01,0,.02-.02.03-.03,8.64-.61,15.7,5.45,23.17,8.25,5.42,2.04,12.39,4.1,19.62,5.86,9.4,2.29,19.24,4.07,26.71,4.64,11.12.85,18.26-1.27,28.13-2.27,10.16-1.03,6.75,2.8,9.7,6.39,1.57,1.92,7.94,4.12,10.18,5.81,2.71,2.05,5.73,5.67,8.28,7.72,6.95,5.6,15.38,15.7,24.23,16.01.02,0,.03-.02.03-.04-2.24-4.55-4.45-9.18-6.59-13.76-4.5-9.6-18.21-37.49-30.35-37.38-2.04.02-82.98-34.38-8.05-16.61,14.38,3.41,26.42,13.26,32.57,26.7,5.96,13.02,13.96,27.14,19.88,31.36,8.48,6.06,17.74-7.06,15.22-16.07-1.58-5.66-16.15-28.73-21.07-30.69,0,0,0,0-.01,0-5.44.84-13.38-2.92-7.57-8.02,2.45-2.15,16.02-.48,18.74,1.24,2.37,1.51,17.43,22.68,22.81,31.6,1.3,2.15,1.77,4.7,1.31,7.17-1,5.32-2.65,10.61-4.94,15.86-1.08,2.46-1.89,5.03-2.7,7.59-1.2,3.8.08,8.71.46,10.54.24,1.13,10.47,12.23,13.38,12.02,0,0,0,0,.01,0,1.05.36,2.05.81,2.99,1.35,1.83,1.06,4.1-.42,3.99-2.53-.22-4.3-.7-11.81-2.42-26.3-1.08-17.12-4.25-33.79-9.5-50.02,0,0-.01-.01-.02-.02-11.75-5-6.13-13.95,4.59-14.06h.01c10.82-4.74,19.84-3.11,7.26,7.6,0,0,0,.01-.01.02-.14.97,7.55,35.83,9.33,38.2,6.44,8.6,10.76-34.31,8.84-36.13,0,0,0,0-.01,0-6.4-1.57-10.47-8.31-1.92-9.48,0,0,0,0,0,0l11.13.9s0,0,0,0c9.14-2.68,27.04-3.53,14.01,6.28-1.05.79-2.31,1.24-3.62,1.32-4.83.31-7.87,2.35-9.1,6.12-4.43,14.31-8.57,30.42-9.82,45.3-.28,3.33-1.99,6.36-4.75,8.24-.02,0-.02,0-.04-.01l-2.72-8.19c-.47-1.41-2.5-1.29-2.8.16-1.56,7.38-2.37,13.66-.23,21.49.06.29,4.66,56.63,4.67,56.61,2-4.3,8.71-26.37,8.73-31.37,0-.76.03-1.51.1-2.24.87-9.47,4.19-11.77,8.83-18.76,3.25-4.9,9.73-11.84,10.01-18.23.37-8.46-9.61-19.26-7.6-28.43.54-2.46,12.83-21.96,14.98-24,1.77-1.68,10.92-6.95,10.21-1.67-1.31,9.74-18.92,17.65-16.49,33.09.72,4.59,8.72,15.93,11.78,20.2.41.58.06,2.14,1.93,1.38,1.8-.73,10.57-15.02,12.02-17.79,3.84-7.3,14.93-39.38,18.39-42.31,5.37-4.56,15.03,2.11,21.19,1.4,1.41-.16,12.71-3.36,13.8-3.94,2.51-1.35,2.94-4.02,5.39-5.65,3.89-2.58,18.29-2.13,19.17-.15,0,.01,0,.02,0,.03-7.1,4.4-22.76,12-30.65,14.02-4.91,1.25-17.44,1.16-19.6,2.44-1.83,1.08-11.01,13.84-12.37,16.35-2.62,4.83-6.83,14.29-9.11,19.59-7.98,18.55,3.27,14.31,14.3,6.57,6.97-4.89,18.16-20.39,25.81-22.6,9.03-2.61,8.09-9.48,57.02-14.79,2.33-.25,4.66.57,6.32,2.22l.11.11c1.78,1.78.39,4.8-2.13,4.63-55.49-3.88-67.95,23.84-75.65,28.4-2.96,1.75-15.68,13.35-19.22,14.14-3.54.79-15.99,2.82-16.02,2.82h0c-2.53.71-5.55,2.44-8.66,4.64-12.33,8.76-20.93,21.83-24.59,36.51-.74,2.97-1.32,5.32-1.54,6.13-3.69,13.7-5.4,27.85-5.36,42.03.02,9.28.01,18.81-.12,19.47-.72,3.66.21,11.11.13,15.44-.43,23.24.56,38.04,17.94,54.02.57,1.76,2.98,4.27,9.03,7.42.89.46,1.57,1.16,2.25,1.62.18.12.36.24.52.35,0,0,0,0,0,0,0,0,0,0,0,0-2.51-.51-4.9-1.68-7.12-2.97-.32-.18-.63-.37-.94-.56-16.13-9.78-15.89.28-26.97-37.5-.18-.6-.25-.79-.29-.72v6.87c0,4.78.58,9.55,1.71,14.19,1.12,4.6,1.81,7.29,2.29,8.72.01.04.03.09.04.13.06.17.12.33.17.47,5.42,13.92,22.56,21.02,36.63,22.42h0c.1.05.21.1.32.14.52.24,1.07.47,1.65.67-.23-.13-.47-.25-.71-.36.24.11.48.23.71.36.35.2,1.32.49,2.65.87,4.55,1.11,10.83,1.8,13.36,3.83,3.7,2.98,8.29,10.33,11.51,14.1.13.13.26.27.39.4.14.14.32.36.52.61.78.82,1.67,2.35,2.63,3.54,2.77,3.47,5.02,7.33,6.46,11.54l.24.71c1.18,3.45,2.31,11.34,5.52,11.04.21-2.74.8-3.74,1.1-5.52l24.51,2.53,13.87,6.77c1.52.74,3.04-1.07,2.02-2.42-2.69-3.59-8.2-4.65-11.7-7.43,1.11-.9,2.89-.96,4.41-1.65.62-3.33-1.69-2.14-3.81-2.21-9.4-.31-18.97.91-28.19-1.1-.23-1.44-9.08-21.32-10.33-23.34-12.96-20.95-32.5-20.76-47.38-32.55-10.89-11.69-8.18-19-6.87-16.62l8.3,10.15c1.72.86,3.39,1.69,5.11,2.55,3.96,1.06,7.8,2.29,11.51,3.7,13.65,5.19,25.34,14.37,34.46,25.78,7.41,9.28,15.88,15.52,28.78,19.31.78.23,1.51.61,2.17,1.1,2.02,1.51,4,2.49,5.94,2.96,1.01.25,1.8-.89,1.25-1.77-1.11-1.78-2.69-4.16-3.54-4.78-6.47-4.76-21.45-5.9-23.83-17.16-.02-.11.08-.22.2-.19,6.88,1.46,13.28,1.28,20.3,3.12,7.63,2,21.8,8.09,27.91,12.93,4.04,3.2,7.19,10.19,11.68,10.49,5.33.35,5.78-1.64,3.24-5.54-6.22-9.59-14.22-12.48-22.55-18.84-.57-.43-2.67-1.42-2.24-2.14.03-.02.06-.05.09-.07,1.72-.62,3.86-.64,5.46-1.1,6.06-1.73,11.2-3.88,17.5-3.55,2.03.11,2.94-2.48,1.28-3.65-1.38-.95-25.54,2.67-39.76-4.94-.25-.06-.48-.09-.69-.11-.05,0-.11-.02-.16-.02-.51-.03-.82.09-.98.3-.92.55-1.41,1.76-.8,2.87.9,1.64-.14,2.79-5.6,2.49-18.03-.98-22.43-10.55-34.81-19.88-8.77-6.61-31.71-15.44-34.24-18.18-1.03-1.12-1.59-4.46-1.07-4.99.84-.86,4.41.66,7.73,1.46,7.44,1.79,14.51,4.86,21.02,8.87,2.14,1.32,4.3,2.65,6.56,4.01,2.51,1.51,12.71,9.33,14.82,11.15,1.19,1.02,11.98,8.35,12.31,8.19,5.51-2.7-20.59-22.78-27.32-28.43-1.13-.95-.37-2.8,1.1-2.68,9.33.71,16.57,7.75,20.5,12.59,3.54,4.36,7.84,8.05,12.69,10.89,1.37.8,2.59,1.5,3.43,1.97.76.43,22.87,13.36,33.98,8.45.84-.37,1.66-.91,1.4-1.79-.25-.84-1.24-.26-2.61-.63-4.88-1.33-10.11-1.53-15.11-3.16-1.29-.42-7.16-1.57-4.42-4.41,3.28-3.4,51.86,6.21,59.09,8.78,5.19,1.85,9.79,5.16,14.88,7.2,1.92.77,14.49,6.24,13.22,1.14-21.39-13.8-44.68-23.66-70.21-26.93-8.19-1.05-14.66.21-21.96-.05-14.8-.54-18.91-14.93-28.69-22.15-18.56-13.71-41.91-3.93-57.96-17.08-9.4-7.7-17.88-33.27-18.78-45.24-.87-11.61,3.04-38.35,10.6-52.43,1.49-2.78,3.13-5.08,4.89-6.66,3.72-3.32,6.95-7.43,12.48-11.25,3.96-2.74,70.66-8.95,98.42-11.6,8.46-.81,16.79-2.69,24.74-5.69,25.56-9.66,49.42-21.81,67.99-36.57,4.31-3.43,7.5-8.98,11.04-12.13,36.01-32.06,59.55-53.07,69.32-103.95,2.15-11.21,1.59-20.85,2.7-32.1,0-.02,0-.05-.01-.07Z"/>
    <path class="cls-22" d="M837.31,833.19c-.05.02-.1.04-.15.07.06,0,.11-.03.15-.07Z"/>
    <path class="cls-16" d="M1027.93,879.23l-.24-.71c-1.44-4.21-3.69-8.06-6.46-11.54-.95-1.19-1.84-2.73-2.63-3.54-.01-.01-.02-.03-.03-.04-.28-.29-.58-.62-.88-.98-3.23-3.77-7.81-11.13-11.51-14.1-2.52-2.03-8.8-2.72-13.36-3.83-.85-.21-1.65-.43-2.34-.68-.1-.06-.21-.13-.31-.19,0,0,0,0,0,0-.57-.2-1.12-.43-1.65-.67-.1-.05-.22-.09-.32-.14-14.07-1.4-31.21-8.49-36.63-22.42-.05-.13-.11-.3-.17-.47-.01-.04-.03-.08-.04-.13-.47-1.44-1.16-4.12-2.29-8.72-1.13-4.64-1.71-9.41-1.71-14.19v-5.2c0-.91-.05-1.57,0-1.67.03-.07.11.13.29.72,11.08,37.78,10.84,27.73,26.97,37.5.31.19.41.66.66.93,2.79,2.97,7.39,2.6,7.39,2.6-.17-.11-.34-.23-.52-.35-.68-.46-.71-1.14-1.52-1.75-2.05-1.53-5.09-3.25-6.85-4.73-.38-.32-.73-.62-1.05-.89-19.19-16.63-20.25-31.65-19.81-55.69.08-4.33-.85-11.78-.13-15.44.13-.67.14-10.19.12-19.47-.04-14.18,1.67-28.34,5.36-42.03.22-.81.8-3.16,1.54-6.13,3.66-14.68,12.26-27.75,24.59-36.51,3.1-2.2,6.12-3.94,8.66-4.64h0s12.47-2.03,16.02-2.82c3.54-.79,16.27-12.39,19.22-14.14,7.7-4.56,20.16-32.27,75.65-28.4,2.51.18,3.91-2.84,2.13-4.63l-.11-.11c-1.66-1.66-3.99-2.48-6.32-2.22-48.93,5.31-47.99,12.18-57.02,14.79-7.65,2.21-18.84,17.71-25.81,22.6-11.03,7.74-22.27,11.98-14.3-6.57,2.28-5.3,6.49-14.76,9.11-19.59,1.36-2.51,10.55-15.27,12.37-16.35,2.16-1.28,14.69-1.19,19.6-2.44,7.89-2.02,23.55-9.62,30.65-14.02,0-.01,0-.02,0-.03-.88-1.98-15.28-2.43-19.17.15-2.45,1.62-2.88,4.3-5.39,5.65-1.09.58-12.39,3.78-13.8,3.94-6.16.71-15.82-5.96-21.19-1.4-3.46,2.93-14.55,35.01-18.39,42.31-1.45,2.76-10.22,17.06-12.02,17.79-1.86.76-1.51-.8-1.93-1.38-3.06-4.27-11.06-15.6-11.78-20.2-2.43-15.44,15.18-23.35,16.49-33.09.71-5.28-8.44,0-10.21,1.67-2.15,2.04-14.44,21.54-14.98,24-2.02,9.17,7.96,19.97,7.6,28.43-.28,6.39-6.76,13.33-10.01,18.23-4.64,6.99-7.96,9.29-8.83,18.76-.07.73-.09,1.48-.1,2.24-.02,5-6.73,27.07-8.73,31.37-.01.02-4.61-56.32-4.67-56.61-2.14-7.82-1.32-14.1.23-21.49.31-1.45,2.34-1.56,2.8-.16l2.72,8.19s.02,0,.04.01c2.76-1.88,4.47-4.92,4.75-8.24,1.24-14.88,5.39-30.99,9.82-45.3,1.24-3.78,4.27-5.82,9.1-6.12,1.31-.08,2.57-.53,3.62-1.32,13.03-9.81-4.87-8.96-14.01-6.28,0,0,0,0,0,0l-11.13-.9s0,0,0,0c-8.55,1.17-4.48,7.91,1.92,9.48,0,0,0,0,.01,0,1.92,1.82-2.4,44.72-8.84,36.13-1.78-2.37-9.47-37.24-9.33-38.2,0,0,0-.01.01-.02,12.58-10.7,3.56-12.33-7.26-7.6h-.01c-10.72.11-16.34,9.07-4.59,14.07,0,0,.01.01.02.02,5.25,16.23,8.42,32.9,9.5,50.02,1.71,14.49,2.2,22,2.42,26.3.11,2.11-2.16,3.58-3.99,2.53-.93-.54-1.93-.99-2.99-1.35,0,0,0,0-.01,0-2.9.21-13.14-10.89-13.38-12.02-.39-1.83-1.66-6.73-.46-10.54.81-2.56,1.62-5.13,2.7-7.59,2.3-5.25,3.95-10.53,4.94-15.86.46-2.47-.01-5.02-1.31-7.17-5.39-8.92-20.45-30.1-22.81-31.6-2.71-1.73-16.28-3.4-18.74-1.24-5.81,5.1,2.13,8.87,7.57,8.02,0,0,0,0,.01,0,4.92,1.96,19.49,25.03,21.07,30.69,2.52,9.01-6.73,22.12-15.22,16.07-5.92-4.23-13.93-18.34-19.88-31.36-6.15-13.44-18.18-23.29-32.57-26.7-74.92-17.78,6.02,16.62,8.05,16.61,12.14-.11,25.85,27.78,30.35,37.38,2.15,4.58,4.35,9.21,6.59,13.76,0,.02,0,.04-.03.04-8.84-.31-17.28-10.41-24.23-16.01-2.55-2.05-5.57-5.67-8.28-7.72-2.24-1.69-8.6-3.89-10.18-5.81-2.95-3.59.46-7.42-9.7-6.39-9.87,1-17.01,3.12-28.13,2.27-7.47-.57-17.31-2.36-26.71-4.64-7.24-1.76-14.21-3.82-19.62-5.86-7.46-2.81-14.53-8.86-23.17-8.25-.01,0-.02.02-.03.03-.32,1.61.48,2.37,1.64,3.3,2.51,2.02,15.98,9.29,19.7,11.2,5.68,2.92,13.3,5.77,21.48,8.22,13.6,4.05,28.78,6.96,39.35,7.1,8.06.11,12.33-2.59,20.45.52,9.85,3.78,15.14,16.86,23.93,22.43,8.21,5.2,17.42,6.78,26.09,9.34,8.1,2.4,19.13,8.67,24.35,15.36,0,0,0,0,.01,0,.4,0,4.89,1.93,9.78,7.41,1.51,1.69,5.18.66,7.98,4.53,2.28,3.15,4.32,6.18,5,7.69,0,0,0,0,0,0,.39,1.01.8,2,1.24,2.9,3.28,8.17,4.13,14.98,3.8,22.43,0,.03,0,.06,0,.09-.02.37-.04.75-.06,1.13-.03.42-.05.83-.08,1.26-.03.39-.06.79-.1,1.18-.04.42-.07.83-.11,1.25-.04.42-.09.85-.14,1.28-.04.41-.09.81-.14,1.23-.06.47-.12.95-.18,1.43-.05.39-.1.77-.15,1.17-.07.56-.15,1.13-.23,1.7-.05.33-.09.66-.14,1-.13.91-.26,1.84-.4,2.79-.65,4.49-2.34,11.57-3.31,16.55,0,0-.13.57-.34,1.58-1.72,7.56-5.92,19.87-7.78,25.88-2.66,8.62-15.05,12.04-15.05,12.04-6.62,3.96-12.12,8.47-18.52,11.38-8.76,3.98-5.73,3.07-13.13,7.29-.52.29-1.85.87-3.12,1.4-.69.29-1.33-.5-.9-1.11,2.4-3.38,4.74-8.32,3.87-8.05-.48.15-.97.32-1.45.51-.16.06-.32.14-.48.2-.32.13-.64.27-.96.42-.19.09-.39.19-.58.29-.29.14-.57.28-.86.43-.21.11-.41.23-.62.34-.27.15-.54.3-.81.46-.21.13-.43.26-.64.39-.26.16-.52.32-.78.49-.22.14-.43.28-.64.43-.26.17-.51.35-.77.52-.22.15-.43.3-.64.46-.25.18-.5.36-.76.55-.22.16-.43.32-.64.48-.25.19-.49.38-.74.57-.21.17-.43.33-.64.5-.25.2-.49.39-.74.59-.21.17-.41.34-.62.51-.25.2-.49.41-.73.61-.2.17-.41.34-.61.51-.25.21-.49.41-.73.62-.2.17-.39.34-.59.51-.25.22-.5.43-.74.64-.19.17-.39.34-.58.5-.29.25-.57.5-.85.74-.31.27-.61.53-.92.8-.21.19-.42.37-.63.55-.24.21-.47.41-.71.61-.18.15-.35.31-.53.46-.03.03-.06.05-.09.08,0,0,0,0,0,0-.75.64-1.61,1.14-2.54,1.5-.06.02-.13.05-.19.08-.55.21-1.11.43-1.67.66-.57.23-1.14.46-1.71.68-.13.05-.26.1-.39.15-.56.22-1.11.43-1.64.62-.1.03-.19.07-.28.1-.54.19-1.06.36-1.55.5-.01,0-.03.01-.04.01-.01,0-.03,0-.04,0-.36.06-.73.08-1.09.12-.33.04-.66.09-.99.11-.37.02-.73.01-1.1.02-.33,0-.65.02-.98.01-.37-.01-.73-.05-1.1-.07-.33-.02-.65-.03-.98-.07-.36-.04-.73-.1-1.09-.15-.33-.05-.65-.08-.98-.14-.37-.06-.73-.15-1.09-.22-.32-.07-.64-.12-.97-.2-.37-.08-.73-.18-1.1-.28-.32-.08-.64-.15-.95-.24-.37-.1-.74-.22-1.11-.32-.31-.09-.62-.18-.93-.27-.37-.11-.74-.24-1.11-.35-.31-.1-.62-.2-.93-.3-.39-.13-.78-.26-1.16-.39-.29-.1-.58-.19-.87-.29-.67-.23-1.34-.46-2-.68-.33-.11-.65-.22-.97-.33-.35-.12-.69-.23-1.03-.35-.37-.12-.73-.23-1.1-.35-.3-.09-.6-.19-.9-.28-.38-.11-.76-.22-1.14-.32-.29-.08-.57-.17-.86-.24-.4-.1-.79-.19-1.19-.29-.27-.06-.53-.14-.8-.19-.44-.1-.89-.17-1.33-.25-.21-.04-.43-.09-.64-.12-.66-.1-1.31-.18-1.96-.23-.55-.04-1.08-.07-1.58-.09-.17,0-.32,0-.48,0-.33,0-.66,0-.97,0-.19,0-.36.02-.54.03-.27.01-.54.02-.8.05-.19.02-.36.04-.54.06-.24.03-.48.05-.71.09-.18.03-.35.06-.53.09-.22.04-.44.07-.64.12-.17.04-.34.08-.51.12-.2.05-.4.1-.6.15-.17.05-.33.1-.5.15-.19.06-.38.11-.57.18-.16.06-.33.12-.49.18-.18.07-.37.13-.55.2-.16.06-.33.13-.49.2-.18.07-.36.15-.53.22-.16.07-.33.15-.5.22-.18.08-.35.16-.53.24-.17.08-.35.16-.52.25-.18.09-.36.17-.55.26-.22.11-.45.22-.67.33-.25.12-.5.24-.75.36-.21.1-.43.21-.64.31-.18.09-.37.18-.56.27-.21.1-.42.2-.63.3-.2.09-.4.18-.6.27-.22.1-.44.2-.66.29-.21.09-.42.18-.64.27-.14.06-.28.12-.42.17-.21.09-.41.17-.63.26-7.46,2.95-13.61,4.67-20.39,9.96-2.5,1.95-15.19,13.69-12.71,16.52,1.02,1.17,17.05-13.6,20.36-13.51,7.97-3.42,17.43-6.37,23.54-8.84,4.14-1.68,8.72-1.96,13.06-.88,4.06,1.02,8.29,2.21,11.45,2.27,1.1.02,2.21-.01,3.31,0,1.08.01,2.16.01,3.23,0,5.18-.05,10.13,1.87,22.74-3.71.54-.2-3.36,11.13-33.38,13.35-1.2.13-2.41.23-3.63.3-7.75.81-20.3,6.95-27.23,10.85-2.34,1.32-16.35,8.83-13.6,12.33,15.21-8.09,33.16-16.08,50.76-15.44-4.1,7.71-20.13,9.31-29.1,12.66-1.11.41-.87,2.05.32,2.1,9.5.45,23.43-3.76,30.87-9.98.63-1.46.11-7.53,15.57-12.52,3.91-1.26,9.77-4.38,13.24-6.62,2.01-1.3,2.73-2,4.41-3.31,5.48-4.26,10.01-11.07,16.2-14.15,4.98-2.48,10.24-4.28,14.84-5.72,9.71-3.04,10.94-6.58,17.8-10.41.77-.43,3.67,2.78,3.69,5.25.03.19,0,.44-.09.76-.2.68-.43,1.34-.68,1.98-.05.14-.11.28-.17.42-.26.62-.54,1.24-.85,1.83-.05.09-.1.19-.15.28-.29.54-.6,1.07-.92,1.59-.07.1-.13.21-.19.31-.36.56-.75,1.12-1.15,1.66-.09.12-.18.23-.26.35-.39.52-.8,1.02-1.23,1.52-.03.04-.06.08-.1.12-.46.53-.93,1.04-1.42,1.55-.11.11-.22.23-.33.34-.48.5-.98.99-1.49,1.48-.06.06-.12.11-.18.17-.48.45-.97.9-1.46,1.34-.11.09-.21.19-.32.28-.53.47-1.07.94-1.61,1.4-.11.09-.22.19-.33.28-.51.43-1.02.85-1.53,1.28-.07.05-.13.11-.2.16-.59.48-1.17.96-1.76,1.44-.66.53-1.31,1.06-1.96,1.59-.03.02-.06.05-.09.07-.53.43-1.06.87-1.59,1.31-.13.1-.25.21-.38.31-.55.46-1.09.92-1.63,1.38-.09.08-.19.16-.28.25-.48.42-.96.84-1.42,1.27-.09.08-.19.17-.28.25-.51.47-1.01.95-1.5,1.43-.06.06-.13.13-.19.19-1.43,1.5.3,3.89,2.19,2.98.02-.01.04-.02.06-.03.13-.06.26-.13.39-.19.37-.18.75-.37,1.12-.56.17-.09.34-.17.51-.26.35-.18.7-.37,1.05-.57.16-.09.32-.17.48-.27.5-.29,1-.58,1.51-.91,9.06-5.83,14.3-7.86,21.59-14.18,5.91-5.13,7.13-14.77,8.19-21.16,2.16-13.01,3.42-23.43,4.82-36.43,0-.05.01-.09.02-.14.15-.72,1.45-6.71,1.48-6.91,4.72-27.73,4.82-8.2,3.71,13.24-.75,14.54-3.48,29.35-4.4,43.94,0,.01,0,.02,0,.03,0,.12-.03.23-.06.34,0,0,0,.01,0,.02h0c-.17.62-.35,1.23-.52,1.85-.13.46-.25.92-.38,1.37-.19.66-.38,1.32-.57,1.97-.12.4-.23.81-.35,1.22-.3,1.01-.6,2.01-.91,3.01-.01.05-.03.09-.04.14-.22.71-.45,1.41-.68,2.12-.11.33-.21.66-.32.99-.19.58-.4,1.14-.6,1.71-.16.45-.31.9-.47,1.34-.2.55-.41,1.08-.61,1.62-.17.46-.34.93-.52,1.38-.16.41-.34.81-.5,1.22-.24.58-.47,1.16-.72,1.73-.12.27-.25.54-.37.81-.31.7-.62,1.39-.95,2.08-.16.34-.34.67-.51,1-.3.61-.6,1.22-.92,1.82-.13.24-.28.48-.41.73-.37.68-.75,1.36-1.14,2.03-.21.36-.44.7-.66,1.05-.34.54-.67,1.09-1.02,1.63-.16.25-.34.48-.51.73-1.61,2.34-3.39,4.6-5.41,6.74-.03.03-.05.06-.08.09-.41.43-.85.84-1.27,1.26-.36.36-.71.73-1.09,1.08-.35.33-.74.65-1.11.98-.48.43-.95.86-1.45,1.27,0,0,0,0,0,0h0c-.08.07-.16.12-.25.17,0,0,0,0,0,0h0c-.74.42-1.59.9-2.49,1.39-.18.1-.36.2-.54.3-.26.14-.53.28-.79.42-.31.16-.61.33-.92.49-.22.12-.45.23-.67.35-.37.19-.73.38-1.1.57-.03.02-.06.03-.1.05-.56.29-1.12.57-1.68.84-.14.07-.28.13-.42.2-1.6.77-3.14,1.46-4.4,1.93-3.86,1.44-8.16,1.78-11.9,3-4.6,1.49-15.09,6.24-18.71,6.74l-5.06.7c-1.33.18-1.84-1.6-.69-2.19-.04.02-.09.02-.13.04-12.37,6.07-26.6,18.68-39.2,20.31-4.1.53-16.5-2-15.14,3.14,1.04,3.92,2.38,3.65,5.03,3.56.28,0,.53-.09.76-.21.13-.07.24-.15.34-.25.04-.03.07-.06.1-.1.33-.36.51-.85.44-1.38-.1-.73.28-1.46.94-1.77,1.53-.73,2.62-.99,3.6-1.04,1.27-.07,2.33.21,3.88.31.29.02.61.03.95.03.02,0,.04,0,.06,0,.37,0,.75-.01,1.18-.04h0c1.48-.11,2.87-.29,4.17-.52,1.74-.31,3.33-.72,4.81-1.2.74-.24,1.46-.51,2.15-.78,1.73-.7,3.31-1.5,4.83-2.37,5.44-3.12,9.94-7.08,16.77-9.95,8.19-3.45,19.71-5.14,29.05-7.76.62-.17,1.24-.35,1.84-.54l.21-.1.62-.29h0c-.19.14-.4.24-.61.32-.07.03-.14.06-.21.07.05-.01.1-.03.15-.04.61-.18,1.24-.33,1.87-.45.34-.07.69-.13,1.04-.19,1.75-.31,3.56-.6,5.43-1.31.52-.2,1.03-.41,1.54-.63.16-.07.32-.15.48-.22.35-.16.7-.31,1.04-.48.2-.09.39-.2.58-.29.31-.15.62-.31.92-.47.21-.11.42-.23.63-.34.29-.16.58-.31.87-.47.22-.12.44-.25.66-.37.28-.16.56-.31.84-.48.22-.13.45-.26.67-.39.27-.16.55-.32.82-.48.25-.15.5-.3.75-.45.39-.23.78-.47,1.17-.7.3-.18.61-.36.91-.55.23-.14.47-.28.7-.42.27-.16.55-.32.82-.49.23-.14.46-.27.7-.4.27-.15.54-.31.8-.46.23-.13.47-.26.71-.39.27-.15.54-.3.8-.44.24-.13.48-.25.72-.38.27-.14.53-.28.8-.41.24-.12.49-.24.73-.36.27-.13.54-.26.81-.38.24-.11.49-.22.74-.33.27-.12.55-.24.82-.35.25-.1.5-.2.75-.29.28-.11.56-.21.84-.31.25-.09.51-.17.76-.25.16-.05.32-.11.48-.16.05-.02.11-.02.16-.04.24-.06.49-.1.72-.05.48.11,2.06-.42,2.06-.42.05.11.37.93.79,2.07.94,2.56,2.39,6.75,2.52,8.15.01-2.15,0-4.29,0-6.44,0-.12-.01-.24-.04-.35,0-.02,0-.05-.01-.07-.78-3.63.88-13.69,2.75-15.21.39-.32,2.66-5.67,2.82-5.52h0s.05.08.07.15c0,.02,0,.03.01.05.02.08.04.18.06.3,0,0,0,.02,0,.03.02.12.03.25.04.41,0,.03,0,.07,0,.1.01.17.02.35.03.55,0,.02,0,.05,0,.08,0,.19.02.39.02.6,0,.04,0,.08,0,.13,0,.24,0,.48.01.74,0,.04,0,.09,0,.13,0,.24,0,.49,0,.75,0,.04,0,.07,0,.11,0,.29,0,.58,0,.89,0,.06,0,.11,0,.17,0,.3,0,.6,0,.91,0,.01,0,.03,0,.04,0,.33,0,.66-.01,1,0,.05,0,.1,0,.16-.01.67-.03,1.35-.04,2.02,0,.06,0,.12,0,.17-.02.68-.03,1.36-.05,2.01,0,.02,0,.04,0,.06-.02.68-.04,1.32-.06,1.92-.05,1.82-.34,4.28.01,6.06.95,4.9,1.72,11.94,1.01,15.81-.14.79-.59,1.64-1.22,2.5-.16.21-.33.43-.51.64-.49.58-1.06,1.16-1.66,1.71-1.81,1.64-3.96,3-5.44,3.49,0,0,0,0,0,0-1.7.56-3.6-.06-4.42.5h0c-18.46,12.52-20.68,10.49-32.88,16.23-6.48,3.05-13.55,4.33-20.1,6.94-5.83,2.33-12.2,6.22-14.61,12.32-.56,1.42.86,2.81,2.26,2.21,4.03-1.72,6.92-5.03,11.76-6.84,7.95-2.98,17.01-4.03,25.37-6.42.39-.11.72-.37.95-.71.03-.04.07-.1.11-.14.02-.02.04-.05.05-.07.55-.75,1.61-1.85,2.83-2.87.64-.53,1.31-1.04,1.97-1.46,6.18-3.88,7.1-4.41,12.36-7.05,1.19-.6,2.56-.72,3.31-1.1,1.07-.55,14.31-5.63,20.98-10.23,2.88-1.99,4.35-8.22,4.35-11.72.02-10.03-3.08-20.82-2.15-30.46.07-.69.16-1.39.27-2.09.75-4.73,2.38-9.58,3.13-13.65.03-.15.06-.31.09-.45,1.05-6.25.89-12.36.92-18.43,0-.02,0-.04,0-.06,0-.03,0-.07,0-.1h0c.06-8.24,1.11-10.33,1.11-18.58,0-5.88,5.56-13.71,3.49-.3-.43,2.8-.68,5.62-.7,8.44-.03,3.57-.16,8.19-.06,16.41.08.44.61,7.11.71,7.48.86,22.48,13.47,35.04,35.56,38.76l.34-.03c2.19-.19,4.36.33,6.31,1.34.04.02.09.04.13.06.51.26,1.03.5,1.56.73.1.04.21.08.31.13.55.22,1.1.44,1.66.64,0,0,.01,0,.02,0,.59.21,1.19.41,1.79.6.11.04.22.07.34.11.61.19,1.21.38,1.82.57.63.2,1.27.39,1.89.6h0c.57.18,1.12.38,1.68.57.11.04.22.08.32.12.54.2,1.06.4,1.58.62.1.04.19.09.29.13.53.24,1.05.48,1.55.75,5.67,3.09,9,7.8,13.24,12.7.49.56,1.6,2.74,2.6,4.62.76,1.42,1.38,2.91,1.97,4.41,1.23,3.09,5.39,8.84,4.93,10.23-.17.51-.96.43-2.78-.61,3.33,8.24,4.12,19.83,8.83,27.59,1.5,2.46,10.2,11.53,13.24,8.82-1.89-4.69-5.19-7.23-6.93-12.37-2-5.92-2.37-12.31-1.9-18.52-3.21.31-4.34-7.59-5.52-11.04Z"/>
    <path class="cls-22" d="M830.26,838.77c1.39-1.17,2.56-2.4,3.43-3.69-1.23.72-2.23,2.48-3.43,3.69Z"/>
    <line class="cls-13" x1="885.56" y1="858.26" x2="885.56" y2="858.26"/>
    <path class="cls-19" d="M859.82,860.97l5.06-.7c3.62-.51,14.11-5.25,18.71-6.74,3.74-1.21,8.04-1.56,11.9-3,1.27-.47,2.8-1.16,4.4-1.93.14-.07.28-.13.42-.2.55-.27,1.12-.55,1.68-.84.03-.02.06-.03.1-.05.37-.19.73-.38,1.1-.57.22-.12.45-.23.67-.35.31-.17.61-.33.92-.49.26-.14.53-.28.79-.42.19-.1.36-.2.54-.3.9-.49,1.75-.97,2.49-1.39h0c.09-.06.17-.12.25-.18,0,0,0,0,0,0,.5-.42.97-.85,1.45-1.27.37-.33.75-.64,1.11-.98.38-.35.72-.72,1.09-1.08.43-.42.86-.83,1.27-1.26.03-.03.05-.06.08-.09,2.02-2.14,3.8-4.4,5.41-6.74.17-.24.35-.48.51-.73.36-.53.69-1.08,1.02-1.63.22-.35.45-.7.66-1.05.4-.67.77-1.35,1.14-2.03.13-.24.28-.48.41-.73.32-.6.62-1.21.92-1.82.17-.33.34-.66.51-1,.33-.69.64-1.38.95-2.08.12-.27.25-.53.37-.81.25-.57.48-1.15.72-1.73.17-.41.34-.81.5-1.22.18-.46.35-.92.52-1.38.2-.54.42-1.08.61-1.62.16-.44.31-.9.47-1.34.2-.57.4-1.14.6-1.71.11-.33.21-.66.32-.99.23-.7.46-1.41.68-2.12.01-.05.03-.09.04-.14.31-1,.62-2,.91-3.01.12-.4.23-.81.35-1.22.19-.66.38-1.31.57-1.97.13-.45.26-.91.38-1.37.17-.62.35-1.23.52-1.85h0c.02-.13.04-.25.06-.37,0,0,0-.01,0-.02.92-14.59,3.65-29.4,4.4-43.94,1.1-21.44,1.01-40.98-3.71-13.24-.03.19-1.33,6.19-1.48,6.91,0,.05-.01.09-.02.14-1.4,13.01-2.67,23.42-4.82,36.43-1.06,6.38-2.27,16.02-8.19,21.16-7.29,6.32-12.53,8.35-21.59,14.18-.51.33-1.01.62-1.51.91-.16.09-.32.18-.48.27-.35.19-.7.38-1.05.57-.17.09-.34.18-.51.26-.37.19-.75.37-1.12.56-.13.06-.26.13-.39.19-.02,0-.04.02-.06.03,0,0,0,0,0,0-1.89.91-3.62-1.49-2.19-2.98.01-.01.02-.03.04-.05.05-.05.1-.1.15-.15.49-.48.99-.96,1.5-1.43.09-.08.18-.17.28-.25.47-.43.94-.85,1.42-1.27.09-.08.19-.16.28-.25.54-.46,1.08-.92,1.63-1.38.13-.1.25-.21.38-.31.53-.44,1.06-.87,1.59-1.31.03-.02.06-.05.09-.07.65-.53,1.31-1.06,1.96-1.59.59-.48,1.18-.96,1.76-1.44.07-.05.13-.11.2-.16.51-.42,1.03-.85,1.53-1.28.11-.09.22-.19.33-.28.54-.46,1.08-.93,1.61-1.4.11-.09.21-.19.32-.28.49-.44.98-.89,1.46-1.34.06-.06.12-.11.18-.17.51-.49,1-.98,1.49-1.48.11-.11.22-.23.33-.34.49-.51.96-1.03,1.42-1.55.03-.04.06-.08.1-.12.43-.5.83-1.01,1.23-1.52.09-.12.18-.23.26-.35.4-.54.79-1.09,1.15-1.66.07-.1.13-.21.19-.31.33-.52.63-1.05.92-1.59.05-.09.1-.19.15-.28.31-.6.59-1.21.85-1.83.06-.14.11-.28.17-.42.25-.65.49-1.3.68-1.98.07-.24.09-.5.09-.76-.02-2.47-2.92-5.68-3.69-5.25-6.86,3.83-8.1,7.37-17.8,10.41-4.6,1.44-9.87,3.24-14.84,5.72-6.19,3.08-10.73,9.89-16.2,14.15-1.68,1.31-2.41,2.01-4.41,3.31-3.47,2.24-9.33,5.36-13.24,6.62-15.46,4.99-14.94,11.06-15.57,12.52,0,0,0,0,0,0,0,0,0,0,0,0,1.2-1.21,2.2-2.97,3.43-3.69,1.27-.75,2.41-1.34,3.47-1.83.05-.02.1-.04.15-.07,6.61-3,9.78-1.68,17.02-4.51,2.74-1.07,6.97-3.59,9.68-6.1,1.32-1.23,2.78-2.31,4.33-3.22,9.11-5.32,16.75-15.7,27.66-17.3,1.83-.27,2.94,1.96,1.59,3.23-6.84,6.46-15.14,13.45-20.32,19.85-1.13,1.39-2.39,2.8-3.16,4.43,0,0,0,0,0,0-1.16.12-8.27,11.1-11.42,11.97-2.6.72-4.49-.86-6.38-.72-8.68.65-17.58,3.96-25.58,7.31-5.18,2.17-31.4,14.62-30.15,20.59,1.23,5.87,9.39-4.22,11.35-5.18,5.6-2.75,9.62-.55,15.29-3.59,6.97-3.75,17.08-17.04,26.86-12.78,11.36,4.95,24.52-9.27,30.24-14.8.29-.28.63-.51,1-.68.5-.23.99-.48,1.47-.73,7.6-4.01,25.05-12.72,26.34-13.07,1.46-.39,5.44-2.56,5.53-2.67.28-.39,3.55,7.99-24.25,24.51-11.61,6.9-23.27,13.9-35.22,19-.03.01-.05.04-.08.05-1.15.59-.64,2.37.69,2.19Z"/>
  </g>
</svg>